<svg xmlns="http://www.w3.org/2000/svg" xmlns:xlink="http://www.w3.org/1999/xlink" width="500" zoomAndPan="magnify" viewBox="0 0 375 374.999991" height="500" preserveAspectRatio="xMidYMid meet" version="1.0"><defs><g/><clipPath id="3554c0e7ad"><path d="M 11 0.679688 L 196 0.679688 L 196 132 L 11 132 Z M 11 0.679688 " clip-rule="nonzero"/></clipPath><clipPath id="fd9b32dea9"><rect x="0" width="185" y="0" height="132"/></clipPath><clipPath id="b50cdcb81c"><rect x="0" width="237" y="0" height="163"/></clipPath></defs><g transform="matrix(1, 0, 0, 1, 71, 79)"><g clip-path="url(#b50cdcb81c)"><g fill="#654d28" fill-opacity="1"><g transform="translate(1.660246, 138.087737)"><g><path d="M 1.234375 -1.09375 C 2.878906 -1.1875 4.25 -1.597656 5.34375 -2.328125 C 6.445312 -3.054688 7 -4.453125 7 -6.515625 L 7 -41.078125 L 6.859375 -41.21875 C 6.171875 -41.945312 5.425781 -42.46875 4.625 -42.78125 C 3.820312 -43.101562 2.96875 -43.289062 2.0625 -43.34375 L 2.0625 -44.4375 L 13.640625 -44.4375 L 30.375 -9.1875 L 44.171875 -44.4375 L 55.28125 -44.4375 L 55.28125 -43.34375 C 54.226562 -43.289062 53.300781 -42.976562 52.5 -42.40625 C 51.695312 -41.84375 51.296875 -40.894531 51.296875 -39.5625 L 51.296875 -4.875 C 51.296875 -3.539062 51.695312 -2.597656 52.5 -2.046875 C 53.300781 -1.503906 54.226562 -1.210938 55.28125 -1.171875 L 55.28125 0 L 40.328125 0 L 40.328125 -1.171875 C 41.378906 -1.210938 42.289062 -1.503906 43.0625 -2.046875 C 43.84375 -2.597656 44.234375 -3.539062 44.234375 -4.875 L 44.234375 -41.828125 L 28.1875 -0.6875 L 26.75 -0.6875 L 8.09375 -39.4375 L 8.09375 -6.515625 C 8.09375 -4.867188 8.457031 -3.664062 9.1875 -2.90625 C 9.914062 -2.15625 10.828125 -1.675781 11.921875 -1.46875 C 13.023438 -1.269531 14.148438 -1.144531 15.296875 -1.09375 L 15.296875 0 L 1.234375 0 Z M 1.234375 -1.09375 "/></g></g></g><g fill="#654d28" fill-opacity="1"><g transform="translate(53.701033, 138.087737)"><g><path d="M 15.984375 0 L 0.34375 0 L 0.34375 -1.171875 C 2.125 -1.304688 3.617188 -1.898438 4.828125 -2.953125 C 6.046875 -4.003906 7 -5.328125 7.6875 -6.921875 L 23.515625 -44.4375 L 25.4375 -44.4375 L 41.90625 -4.9375 C 42.40625 -3.65625 43.066406 -2.71875 43.890625 -2.125 C 44.710938 -1.53125 45.765625 -1.210938 47.046875 -1.171875 L 47.046875 0 L 30.453125 0 L 30.453125 -1.09375 C 31.273438 -1.1875 32.128906 -1.378906 33.015625 -1.671875 C 33.910156 -1.972656 34.359375 -2.671875 34.359375 -3.765625 C 34.359375 -4.046875 34.332031 -4.320312 34.28125 -4.59375 C 34.238281 -4.863281 34.171875 -5.09375 34.078125 -5.28125 L 29.015625 -17.484375 L 13.640625 -17.484375 L 9.53125 -7.34375 C 9.394531 -7.019531 9.289062 -6.640625 9.21875 -6.203125 C 9.15625 -5.773438 9.125 -5.398438 9.125 -5.078125 C 9.125 -3.835938 9.5 -2.941406 10.25 -2.390625 C 11.007812 -1.847656 11.925781 -1.492188 13 -1.328125 C 14.070312 -1.171875 15.066406 -1.09375 15.984375 -1.09375 Z M 21.265625 -36.078125 L 14.125 -18.578125 L 28.53125 -18.578125 Z M 21.265625 -36.078125 "/></g></g></g><g fill="#654d28" fill-opacity="1"><g transform="translate(96.348316, 138.087737)"><g><path d="M 1.09375 -5.21875 C 1.050781 -5.257812 1.03125 -5.300781 1.03125 -5.34375 L 2.265625 -14.609375 L 3.296875 -14.46875 C 3.523438 -12.78125 4.082031 -11.085938 4.96875 -9.390625 C 5.863281 -7.703125 6.972656 -6.179688 8.296875 -4.828125 C 9.617188 -3.484375 11.113281 -2.398438 12.78125 -1.578125 C 14.457031 -0.753906 16.1875 -0.34375 17.96875 -0.34375 C 20.113281 -0.34375 22 -1.015625 23.625 -2.359375 C 25.25 -3.710938 26.0625 -5.554688 26.0625 -7.890625 C 26.0625 -9.441406 25.660156 -10.800781 24.859375 -11.96875 C 24.054688 -13.132812 23.050781 -14.148438 21.84375 -15.015625 C 20.632812 -15.890625 19.410156 -16.644531 18.171875 -17.28125 C 17.441406 -17.695312 16.707031 -18.097656 15.96875 -18.484375 C 15.238281 -18.867188 14.488281 -19.269531 13.71875 -19.6875 C 11.707031 -20.738281 9.796875 -21.867188 7.984375 -23.078125 C 6.179688 -24.285156 4.71875 -25.6875 3.59375 -27.28125 C 2.476562 -28.882812 1.921875 -30.8125 1.921875 -33.0625 C 1.921875 -35.84375 2.660156 -38.125 4.140625 -39.90625 C 5.628906 -41.695312 7.539062 -43.023438 9.875 -43.890625 C 12.207031 -44.753906 14.628906 -45.1875 17.140625 -45.1875 C 18.378906 -45.1875 19.785156 -45.070312 21.359375 -44.84375 C 22.941406 -44.613281 24.460938 -44.257812 25.921875 -43.78125 C 27.378906 -43.300781 28.566406 -42.648438 29.484375 -41.828125 C 29.535156 -41.785156 29.601562 -41.71875 29.6875 -41.625 C 29.78125 -41.53125 29.875 -41.441406 29.96875 -41.359375 C 30.0625 -41.265625 30.128906 -41.148438 30.171875 -41.015625 L 31.34375 -31.484375 L 30.109375 -31.484375 C 29.597656 -32.804688 28.882812 -34.207031 27.96875 -35.6875 C 27.0625 -37.175781 26.015625 -38.570312 24.828125 -39.875 C 23.640625 -41.175781 22.3125 -42.226562 20.84375 -43.03125 C 19.382812 -43.832031 17.851562 -44.234375 16.25 -44.234375 C 14.144531 -44.234375 12.347656 -43.613281 10.859375 -42.375 C 9.378906 -41.144531 8.640625 -39.382812 8.640625 -37.09375 C 8.640625 -35.40625 9.023438 -33.941406 9.796875 -32.703125 C 10.578125 -31.472656 11.582031 -30.390625 12.8125 -29.453125 C 14.050781 -28.515625 15.3125 -27.679688 16.59375 -26.953125 C 17.320312 -26.492188 18.0625 -26.066406 18.8125 -25.671875 C 19.570312 -25.285156 20.316406 -24.890625 21.046875 -24.484375 C 23.109375 -23.390625 25.039062 -22.234375 26.84375 -21.015625 C 28.65625 -19.804688 30.128906 -18.398438 31.265625 -16.796875 C 32.410156 -15.203125 32.984375 -13.285156 32.984375 -11.046875 C 32.984375 -9.535156 32.664062 -8.09375 32.03125 -6.71875 C 31.15625 -4.75 29.882812 -3.226562 28.21875 -2.15625 C 26.550781 -1.082031 24.695312 -0.34375 22.65625 0.0625 C 20.625 0.476562 18.601562 0.6875 16.59375 0.6875 C 15.039062 0.6875 13.335938 0.503906 11.484375 0.140625 C 9.628906 -0.222656 7.832031 -0.769531 6.09375 -1.5 C 4.363281 -2.238281 2.925781 -3.15625 1.78125 -4.25 C 1.738281 -4.34375 1.671875 -4.429688 1.578125 -4.515625 C 1.484375 -4.609375 1.390625 -4.726562 1.296875 -4.875 C 1.160156 -5.007812 1.09375 -5.125 1.09375 -5.21875 Z M 1.09375 -5.21875 "/></g></g></g><g fill="#654d28" fill-opacity="1"><g transform="translate(125.968133, 138.087737)"><g><path d="M 1.78125 -31.40625 L 0.6875 -31.484375 L 3.359375 -44.4375 L 39.015625 -44.4375 L 41.90625 -31.484375 L 40.734375 -31.40625 C 39.734375 -33.601562 38.613281 -35.601562 37.375 -37.40625 C 36.144531 -39.21875 34.632812 -40.660156 32.84375 -41.734375 C 31.0625 -42.804688 28.867188 -43.34375 26.265625 -43.34375 L 24.40625 -43.34375 L 24.40625 -4.875 C 24.40625 -3.539062 24.796875 -2.597656 25.578125 -2.046875 C 26.359375 -1.503906 27.273438 -1.1875 28.328125 -1.09375 L 28.328125 0 L 13.375 0 L 13.375 -1.09375 C 14.425781 -1.1875 15.347656 -1.503906 16.140625 -2.046875 C 16.941406 -2.597656 17.34375 -3.539062 17.34375 -4.875 L 17.34375 -43.34375 L 15.4375 -43.34375 C 12.914062 -43.34375 10.820312 -42.78125 9.15625 -41.65625 C 7.488281 -40.539062 6.082031 -39.066406 4.9375 -37.234375 C 3.789062 -35.410156 2.738281 -33.46875 1.78125 -31.40625 Z M 1.78125 -31.40625 "/></g></g></g><g fill="#654d28" fill-opacity="1"><g transform="translate(163.884394, 138.087737)"><g><path d="M 0.625 0 L 0.625 -1.171875 C 1.664062 -1.210938 2.585938 -1.503906 3.390625 -2.046875 C 4.191406 -2.597656 4.59375 -3.539062 4.59375 -4.875 L 4.59375 -39.5625 C 4.59375 -40.894531 4.191406 -41.84375 3.390625 -42.40625 C 2.585938 -42.976562 1.664062 -43.289062 0.625 -43.34375 L 0.625 -44.4375 L 32.640625 -44.4375 L 35.390625 -31.484375 L 34.296875 -31.40625 C 33.972656 -32.132812 33.6875 -32.851562 33.4375 -33.5625 C 33.1875 -34.269531 32.898438 -34.96875 32.578125 -35.65625 C 31.390625 -38.175781 29.859375 -40.085938 27.984375 -41.390625 C 26.109375 -42.691406 23.753906 -43.34375 20.921875 -43.34375 L 11.65625 -43.34375 L 11.65625 -22.15625 L 12.140625 -22.21875 C 13.421875 -22.21875 14.675781 -22.21875 15.90625 -22.21875 C 17.144531 -22.21875 18.40625 -22.238281 19.6875 -22.28125 C 21.238281 -22.28125 22.675781 -22.441406 24 -22.765625 C 25.320312 -23.085938 26.394531 -23.71875 27.21875 -24.65625 C 28.039062 -25.59375 28.5 -26.953125 28.59375 -28.734375 L 29.625 -28.734375 L 29.625 -15.640625 L 28.53125 -15.640625 C 28.4375 -17.460938 27.851562 -18.75 26.78125 -19.5 C 25.707031 -20.257812 24.367188 -20.6875 22.765625 -20.78125 C 22.304688 -20.875 21.800781 -20.921875 21.25 -20.921875 C 20.707031 -20.921875 20.1875 -20.921875 19.6875 -20.921875 L 11.65625 -20.984375 L 11.65625 -1.09375 L 24.203125 -1.09375 C 26.804688 -1.09375 28.894531 -1.789062 30.46875 -3.1875 C 32.050781 -4.582031 33.347656 -6.378906 34.359375 -8.578125 C 34.722656 -9.347656 35.03125 -10.097656 35.28125 -10.828125 C 35.53125 -11.566406 35.816406 -12.300781 36.140625 -13.03125 L 37.234375 -12.96875 L 34.5 0 Z M 0.625 0 "/></g></g></g><g fill="#654d28" fill-opacity="1"><g transform="translate(197.412455, 138.087737)"><g><path d="M 0.953125 -43.34375 L 0.953125 -44.4375 C 3.648438 -44.4375 6.3125 -44.445312 8.9375 -44.46875 C 11.570312 -44.488281 14.21875 -44.5 16.875 -44.5 C 18.46875 -44.5 20.050781 -44.460938 21.625 -44.390625 C 23.207031 -44.328125 24.734375 -44.09375 26.203125 -43.6875 C 28.753906 -43 30.738281 -41.691406 32.15625 -39.765625 C 33.582031 -37.847656 34.296875 -35.566406 34.296875 -32.921875 C 34.296875 -30.265625 33.664062 -28.085938 32.40625 -26.390625 C 31.144531 -24.703125 29.472656 -23.46875 27.390625 -22.6875 C 25.316406 -21.914062 23.046875 -21.53125 20.578125 -21.53125 C 22.628906 -21.4375 24.304688 -20.84375 25.609375 -19.75 C 26.910156 -18.65625 27.960938 -17.316406 28.765625 -15.734375 C 29.566406 -14.160156 30.265625 -12.597656 30.859375 -11.046875 C 31.085938 -10.453125 31.300781 -9.867188 31.5 -9.296875 C 31.707031 -8.722656 31.90625 -8.160156 32.09375 -7.609375 C 32.320312 -7.066406 32.550781 -6.53125 32.78125 -6 C 33.007812 -5.476562 33.238281 -4.988281 33.46875 -4.53125 C 33.96875 -3.65625 34.535156 -2.921875 35.171875 -2.328125 C 35.816406 -1.734375 36.617188 -1.347656 37.578125 -1.171875 L 37.578125 0 L 30.25 0 C 28.601562 0 27.332031 -0.726562 26.4375 -2.1875 C 25.539062 -3.65625 24.753906 -5.488281 24.078125 -7.6875 C 23.753906 -8.738281 23.421875 -9.832031 23.078125 -10.96875 C 22.734375 -12.113281 22.351562 -13.210938 21.9375 -14.265625 C 21.070312 -16.503906 20 -18.21875 18.71875 -19.40625 C 17.4375 -20.59375 15.519531 -21.1875 12.96875 -21.1875 L 12 -21.1875 L 12 -4.875 C 12 -2.488281 13.070312 -1.226562 15.21875 -1.09375 L 15.21875 0 L 0.953125 0 L 0.953125 -1.171875 C 2.003906 -1.210938 2.929688 -1.503906 3.734375 -2.046875 C 4.535156 -2.597656 4.9375 -3.539062 4.9375 -4.875 L 4.9375 -39.5625 C 4.9375 -40.894531 4.535156 -41.84375 3.734375 -42.40625 C 2.929688 -42.976562 2.003906 -43.289062 0.953125 -43.34375 Z M 12.484375 -43.484375 L 12 -43.484375 L 12 -22.359375 L 12.484375 -22.359375 C 13.117188 -22.359375 13.820312 -22.359375 14.59375 -22.359375 C 15.375 -22.359375 16.175781 -22.378906 17 -22.421875 C 17.820312 -22.515625 18.632812 -22.617188 19.4375 -22.734375 C 20.238281 -22.847656 20.9375 -23.019531 21.53125 -23.25 C 23.445312 -24.019531 24.816406 -25.351562 25.640625 -27.25 C 26.460938 -29.15625 26.875 -31.046875 26.875 -32.921875 C 26.875 -34.796875 26.460938 -36.671875 25.640625 -38.546875 C 24.816406 -40.421875 23.445312 -41.742188 21.53125 -42.515625 C 20.9375 -42.742188 20.238281 -42.925781 19.4375 -43.0625 C 18.632812 -43.195312 17.820312 -43.289062 17 -43.34375 C 16.175781 -43.4375 15.375 -43.484375 14.59375 -43.484375 C 13.820312 -43.484375 13.117188 -43.484375 12.484375 -43.484375 Z M 12.484375 -43.484375 "/></g></g></g><g clip-path="url(#3554c0e7ad)"><g transform="matrix(1, 0, 0, 1, 11, 0)"><g clip-path="url(#fd9b32dea9)"><g fill="#654d28" fill-opacity="1"><g transform="translate(2.324676, 76.790251)"><g><path d="M 51.078125 7.296875 C 50.359375 7.296875 49.644531 7.25 48.9375 7.15625 C 48.238281 7.0625 47.585938 6.925781 46.984375 6.75 C 45.929688 6.351562 44.910156 5.757812 43.921875 4.96875 C 42.929688 4.175781 42.203125 3.164062 41.734375 1.9375 C 41.523438 1.332031 41.347656 0.722656 41.203125 0.109375 C 41.054688 -0.503906 40.984375 -1.132812 40.984375 -1.78125 C 40.984375 -2.320312 41.035156 -2.863281 41.140625 -3.40625 C 41.398438 -4.625 41.695312 -5.800781 42.03125 -6.9375 C 42.375 -8.070312 42.800781 -9.195312 43.3125 -10.3125 C 43.882812 -11.71875 44.617188 -13.117188 45.515625 -14.515625 C 46.421875 -15.921875 47.210938 -17.289062 47.890625 -18.625 C 48.503906 -19.738281 49.160156 -20.804688 49.859375 -21.828125 C 50.566406 -22.859375 51.316406 -23.878906 52.109375 -24.890625 C 52.503906 -25.398438 53.078125 -26.140625 53.828125 -27.109375 C 54.585938 -28.078125 55.363281 -29.117188 56.15625 -30.234375 C 55.976562 -29.984375 56.003906 -29.984375 56.234375 -30.234375 C 56.472656 -30.492188 56.816406 -30.875 57.265625 -31.375 C 57.710938 -31.875 58.171875 -32.394531 58.640625 -32.9375 C 59.109375 -33.476562 59.453125 -33.875 59.671875 -34.125 C 60.066406 -34.5625 60.460938 -34.976562 60.859375 -35.375 C 61.253906 -35.769531 61.648438 -36.164062 62.046875 -36.5625 C 62.660156 -37.164062 63.40625 -37.890625 64.28125 -38.734375 C 65.164062 -39.585938 65.914062 -40.335938 66.53125 -40.984375 C 65.738281 -41.085938 65.019531 -41.140625 64.375 -41.140625 C 63.71875 -41.210938 63.070312 -41.285156 62.4375 -41.359375 C 61.8125 -41.429688 61.140625 -41.503906 60.421875 -41.578125 C 59.523438 -41.722656 58.785156 -41.835938 58.203125 -41.921875 C 57.628906 -42.015625 56.945312 -42.132812 56.15625 -42.28125 C 55.507812 -42.351562 54.851562 -42.425781 54.1875 -42.5 C 53.519531 -42.570312 52.84375 -42.679688 52.15625 -42.828125 C 51.757812 -42.929688 51.347656 -43 50.921875 -43.03125 C 50.492188 -43.070312 50.082031 -43.09375 49.6875 -43.09375 C 48.882812 -43.09375 48.078125 -43.15625 47.265625 -43.28125 C 46.460938 -43.40625 45.644531 -43.488281 44.8125 -43.53125 C 44.019531 -43.59375 43.203125 -43.632812 42.359375 -43.65625 C 41.515625 -43.675781 40.679688 -43.757812 39.859375 -43.90625 C 39.273438 -43.976562 38.695312 -44.03125 38.125 -44.0625 C 37.550781 -44.101562 36.957031 -44.140625 36.34375 -44.171875 C 36.050781 -44.171875 35.75 -44.1875 35.4375 -44.21875 C 35.132812 -44.257812 34.84375 -44.296875 34.5625 -44.328125 C 33.988281 -44.398438 33.429688 -44.445312 32.890625 -44.46875 C 32.347656 -44.488281 31.789062 -44.5 31.21875 -44.5 L 30.671875 -44.5 C 30.492188 -44.5 30.3125 -44.503906 30.125 -44.515625 C 29.945312 -44.535156 29.769531 -44.582031 29.59375 -44.65625 C 29.445312 -44.726562 29.3125 -44.765625 29.1875 -44.765625 C 29.0625 -44.765625 28.910156 -44.765625 28.734375 -44.765625 C 28.546875 -44.765625 28.34375 -44.742188 28.125 -44.703125 C 27.914062 -44.671875 27.722656 -44.601562 27.546875 -44.5 L 26.25 -44.8125 C 25.664062 -44.601562 25.070312 -44.5 24.46875 -44.5 C 24.207031 -44.5 23.957031 -44.515625 23.71875 -44.546875 C 23.488281 -44.585938 23.25 -44.660156 23 -44.765625 C 22.789062 -44.734375 22.585938 -44.679688 22.390625 -44.609375 C 22.191406 -44.535156 22 -44.5 21.8125 -44.5 C 20.84375 -44.570312 19.878906 -44.539062 18.921875 -44.40625 C 17.972656 -44.28125 17.007812 -44.1875 16.03125 -44.125 C 14.769531 -44.050781 13.519531 -43.914062 12.28125 -43.71875 C 11.039062 -43.519531 9.8125 -43.222656 8.59375 -42.828125 C 7.9375 -42.609375 7.289062 -42.390625 6.65625 -42.171875 C 6.03125 -41.953125 5.414062 -41.703125 4.8125 -41.421875 C 3.40625 -40.703125 2.085938 -39.78125 0.859375 -38.65625 C 0.753906 -38.550781 0.644531 -38.453125 0.53125 -38.359375 C 0.425781 -38.273438 0.320312 -38.195312 0.21875 -38.125 L 0 -38.125 C 0 -38.15625 0 -38.179688 0 -38.203125 C 0 -38.222656 0 -38.25 0 -38.28125 C 0 -38.644531 0.160156 -38.953125 0.484375 -39.203125 C 1.785156 -40.359375 3.171875 -41.335938 4.640625 -42.140625 C 6.117188 -42.953125 7.722656 -43.519531 9.453125 -43.84375 C 10.640625 -44.0625 11.828125 -44.25 13.015625 -44.40625 C 14.203125 -44.570312 15.390625 -44.726562 16.578125 -44.875 C 18.015625 -45.050781 19.441406 -45.128906 20.859375 -45.109375 C 22.285156 -45.097656 23.71875 -45.109375 25.15625 -45.140625 C 25.664062 -45.140625 26.15625 -45.148438 26.625 -45.171875 C 27.09375 -45.191406 27.5625 -45.203125 28.03125 -45.203125 C 28.75 -45.203125 29.441406 -45.191406 30.109375 -45.171875 C 30.773438 -45.148438 31.445312 -45.125 32.125 -45.09375 C 33.101562 -45.050781 34.085938 -44.992188 35.078125 -44.921875 C 36.066406 -44.847656 37.046875 -44.722656 38.015625 -44.546875 C 38.304688 -44.515625 38.601562 -44.5 38.90625 -44.5 C 39.207031 -44.5 39.503906 -44.5 39.796875 -44.5 C 40.296875 -44.457031 40.804688 -44.445312 41.328125 -44.46875 C 41.859375 -44.488281 42.375 -44.40625 42.875 -44.21875 C 43.019531 -44.1875 43.179688 -44.171875 43.359375 -44.171875 C 43.535156 -44.171875 43.695312 -44.171875 43.84375 -44.171875 C 44.238281 -44.171875 44.613281 -44.171875 44.96875 -44.171875 C 45.332031 -44.171875 45.695312 -44.082031 46.0625 -43.90625 C 46.164062 -43.863281 46.328125 -43.84375 46.546875 -43.84375 C 46.722656 -43.882812 46.898438 -43.90625 47.078125 -43.90625 C 47.265625 -43.90625 47.429688 -43.90625 47.578125 -43.90625 C 48.398438 -43.90625 49.21875 -43.859375 50.03125 -43.765625 C 50.84375 -43.671875 51.660156 -43.59375 52.484375 -43.53125 C 53.066406 -43.488281 53.632812 -43.421875 54.1875 -43.328125 C 54.75 -43.242188 55.316406 -43.164062 55.890625 -43.09375 C 56.710938 -42.945312 57.53125 -42.789062 58.34375 -42.625 C 59.15625 -42.46875 59.972656 -42.351562 60.796875 -42.28125 C 61.660156 -42.25 62.515625 -42.175781 63.359375 -42.0625 C 64.210938 -41.957031 65.050781 -41.816406 65.875 -41.640625 C 66.09375 -41.597656 66.3125 -41.578125 66.53125 -41.578125 C 66.75 -41.578125 66.960938 -41.578125 67.171875 -41.578125 C 67.710938 -42.046875 68.253906 -42.488281 68.796875 -42.90625 C 69.335938 -43.320312 69.84375 -43.757812 70.3125 -44.21875 C 70.519531 -44.476562 70.75 -44.707031 71 -44.90625 C 71.257812 -45.101562 71.515625 -45.304688 71.765625 -45.515625 C 72.484375 -46.128906 73.21875 -46.75 73.96875 -47.375 C 74.726562 -48.007812 75.488281 -48.632812 76.25 -49.25 L 77.765625 -50.4375 C 78.585938 -51.050781 79.394531 -51.691406 80.1875 -52.359375 C 80.976562 -53.023438 81.769531 -53.644531 82.5625 -54.21875 C 83.46875 -54.832031 84.367188 -55.4375 85.265625 -56.03125 C 86.160156 -56.625 87.0625 -57.207031 87.96875 -57.78125 C 88.832031 -58.320312 89.703125 -58.859375 90.578125 -59.390625 C 91.460938 -59.929688 92.359375 -60.4375 93.265625 -60.90625 C 93.984375 -61.300781 94.703125 -61.671875 95.421875 -62.015625 C 96.140625 -62.359375 96.859375 -62.710938 97.578125 -63.078125 C 97.972656 -63.285156 98.382812 -63.488281 98.8125 -63.6875 C 99.25 -63.882812 99.664062 -64.054688 100.0625 -64.203125 C 100.351562 -64.347656 100.648438 -64.484375 100.953125 -64.609375 C 101.253906 -64.734375 101.566406 -64.851562 101.890625 -64.96875 C 102.429688 -65.175781 102.976562 -65.378906 103.53125 -65.578125 C 104.09375 -65.773438 104.644531 -66.003906 105.1875 -66.265625 C 105.476562 -66.398438 105.765625 -66.503906 106.046875 -66.578125 C 106.335938 -66.648438 106.609375 -66.742188 106.859375 -66.859375 C 107.046875 -66.921875 107.238281 -66.96875 107.4375 -67 C 107.632812 -67.039062 107.804688 -67.082031 107.953125 -67.125 C 109.316406 -67.625 110.707031 -68.046875 112.125 -68.390625 C 113.550781 -68.734375 114.96875 -69.046875 116.375 -69.328125 C 116.914062 -69.398438 117.507812 -69.5 118.15625 -69.625 C 118.800781 -69.757812 119.664062 -69.863281 120.75 -69.9375 C 121.539062 -70 122.203125 -70.039062 122.734375 -70.0625 C 123.273438 -70.082031 123.800781 -70.09375 124.3125 -70.09375 C 124.59375 -70.09375 124.867188 -70.09375 125.140625 -70.09375 C 125.410156 -70.09375 125.707031 -70.070312 126.03125 -70.03125 C 127.332031 -70 128.617188 -69.863281 129.890625 -69.625 C 131.171875 -69.394531 132.390625 -68.972656 133.546875 -68.359375 C 134.515625 -67.890625 135.375 -67.273438 136.125 -66.515625 C 136.882812 -65.765625 137.445312 -64.832031 137.8125 -63.71875 C 138.0625 -63.070312 138.226562 -62.429688 138.3125 -61.796875 C 138.40625 -61.171875 138.453125 -60.535156 138.453125 -59.890625 C 138.453125 -59.421875 138.425781 -58.957031 138.375 -58.5 C 138.320312 -58.050781 138.257812 -57.578125 138.1875 -57.078125 C 137.863281 -55.453125 137.332031 -53.9375 136.59375 -52.53125 C 135.851562 -51.132812 135.015625 -49.804688 134.078125 -48.546875 C 133.066406 -47.253906 131.898438 -46.15625 130.578125 -45.25 C 130.035156 -44.894531 129.519531 -44.523438 129.03125 -44.140625 C 128.539062 -43.765625 128.03125 -43.429688 127.5 -43.140625 C 126.59375 -42.640625 125.671875 -42.132812 124.734375 -41.625 C 123.796875 -41.125 122.84375 -40.695312 121.875 -40.34375 C 120.757812 -39.945312 119.671875 -39.566406 118.609375 -39.203125 C 117.546875 -38.835938 116.441406 -38.550781 115.296875 -38.34375 C 114.929688 -38.269531 114.554688 -38.203125 114.171875 -38.140625 C 113.796875 -38.085938 113.410156 -38.03125 113.015625 -37.96875 C 112.335938 -37.851562 111.765625 -37.757812 111.296875 -37.6875 C 110.828125 -37.613281 110.175781 -37.523438 109.34375 -37.421875 C 108.300781 -37.347656 107.320312 -37.3125 106.40625 -37.3125 C 105.488281 -37.3125 104.328125 -37.273438 102.921875 -37.203125 C 102.816406 -37.203125 102.445312 -37.21875 101.8125 -37.25 C 101.1875 -37.289062 100.40625 -37.347656 99.46875 -37.421875 C 98.78125 -37.492188 98.203125 -37.535156 97.734375 -37.546875 C 97.265625 -37.566406 96.765625 -37.597656 96.234375 -37.640625 C 95.296875 -37.671875 94.4375 -37.722656 93.65625 -37.796875 C 92.882812 -37.867188 92.085938 -37.957031 91.265625 -38.0625 C 90.972656 -38.101562 90.671875 -38.128906 90.359375 -38.140625 C 90.054688 -38.160156 89.765625 -38.191406 89.484375 -38.234375 C 88.078125 -38.304688 86.820312 -38.40625 85.71875 -38.53125 C 84.625 -38.65625 83.5 -38.789062 82.34375 -38.9375 C 81.875 -39.007812 81.492188 -39.050781 81.203125 -39.0625 C 80.921875 -39.082031 80.582031 -39.113281 80.1875 -39.15625 C 79.832031 -39.1875 79.523438 -39.226562 79.265625 -39.28125 C 79.015625 -39.332031 78.582031 -39.378906 77.96875 -39.421875 C 77.863281 -39.453125 77.703125 -39.46875 77.484375 -39.46875 C 76.765625 -39.539062 76.21875 -39.601562 75.84375 -39.65625 C 75.46875 -39.71875 75.007812 -39.785156 74.46875 -39.859375 C 74.289062 -39.859375 73.96875 -39.898438 73.5 -39.984375 C 73.03125 -40.078125 72.703125 -40.140625 72.515625 -40.171875 C 72.335938 -40.242188 72.101562 -40.320312 71.8125 -40.40625 C 71.53125 -40.5 71.316406 -40.515625 71.171875 -40.453125 C 70.273438 -39.722656 69.507812 -39.125 68.875 -38.65625 C 68.25 -38.195312 67.46875 -37.5 66.53125 -36.5625 C 66.457031 -36.488281 66.347656 -36.359375 66.203125 -36.171875 C 66.054688 -35.992188 65.84375 -35.78125 65.5625 -35.53125 C 64.976562 -34.882812 64.425781 -34.300781 63.90625 -33.78125 C 63.382812 -33.257812 62.875 -32.707031 62.375 -32.125 C 61.363281 -31.007812 60.34375 -29.867188 59.3125 -28.703125 C 58.289062 -27.535156 57.332031 -26.320312 56.4375 -25.0625 C 56.070312 -24.519531 55.679688 -23.976562 55.265625 -23.4375 C 54.847656 -22.894531 54.441406 -22.351562 54.046875 -21.8125 C 53.328125 -20.945312 52.679688 -20.03125 52.109375 -19.0625 C 51.535156 -18.09375 50.957031 -17.117188 50.375 -16.140625 C 49.875 -15.242188 49.367188 -14.351562 48.859375 -13.46875 C 48.359375 -12.59375 47.875 -11.6875 47.40625 -10.75 C 46.726562 -9.445312 46.109375 -8.128906 45.546875 -6.796875 C 44.992188 -5.472656 44.570312 -4.085938 44.28125 -2.640625 C 44.175781 -1.992188 44.125 -1.347656 44.125 -0.703125 C 44.125 0.0546875 44.226562 0.847656 44.4375 1.671875 C 44.6875 2.390625 44.984375 3.023438 45.328125 3.578125 C 45.671875 4.140625 46.128906 4.640625 46.703125 5.078125 C 47.242188 5.429688 47.640625 5.660156 47.890625 5.765625 C 48.148438 5.878906 48.601562 6.007812 49.25 6.15625 C 49.75 6.257812 50.207031 6.335938 50.625 6.390625 C 51.039062 6.453125 51.484375 6.484375 51.953125 6.484375 C 52.523438 6.484375 53.316406 6.425781 54.328125 6.3125 C 54.796875 6.3125 55.488281 6.222656 56.40625 6.046875 C 57.320312 5.867188 58.3125 5.625 59.375 5.3125 C 60.4375 5.007812 61.398438 4.710938 62.265625 4.421875 C 62.984375 4.140625 63.800781 3.789062 64.71875 3.375 C 65.632812 2.957031 66.4375 2.570312 67.125 2.21875 C 68.738281 1.382812 70.289062 0.570312 71.78125 -0.21875 C 73.28125 -1.007812 74.84375 -1.875 76.46875 -2.8125 C 76.96875 -3.09375 77.488281 -3.40625 78.03125 -3.75 C 78.570312 -4.09375 79.179688 -4.460938 79.859375 -4.859375 C 80.867188 -5.578125 81.878906 -6.257812 82.890625 -6.90625 C 83.898438 -7.5625 85.050781 -8.351562 86.34375 -9.28125 C 87.101562 -9.789062 87.820312 -10.285156 88.5 -10.765625 C 89.1875 -11.253906 89.945312 -11.804688 90.78125 -12.421875 C 91.28125 -12.816406 91.691406 -13.117188 92.015625 -13.328125 C 92.335938 -13.546875 92.625 -13.65625 92.875 -13.65625 C 93.019531 -13.625 93.09375 -13.570312 93.09375 -13.5 C 93.09375 -13.425781 93.046875 -13.351562 92.953125 -13.28125 C 92.867188 -13.207031 92.753906 -13.117188 92.609375 -13.015625 C 92.359375 -12.796875 91.941406 -12.476562 91.359375 -12.0625 C 90.785156 -11.65625 90.265625 -11.269531 89.796875 -10.90625 C 88.929688 -10.289062 88.273438 -9.8125 87.828125 -9.46875 C 87.378906 -9.132812 86.945312 -8.820312 86.53125 -8.53125 C 86.113281 -8.238281 85.53125 -7.828125 84.78125 -7.296875 C 83.59375 -6.535156 82.539062 -5.847656 81.625 -5.234375 C 80.707031 -4.617188 79.769531 -4.003906 78.8125 -3.390625 C 77.851562 -2.785156 76.726562 -2.125 75.4375 -1.40625 C 74 -0.570312 72.601562 0.203125 71.25 0.921875 C 69.90625 1.640625 68.492188 2.359375 67.015625 3.078125 C 65.929688 3.617188 64.832031 4.125 63.71875 4.59375 C 62.601562 5.0625 61.34375 5.492188 59.9375 5.890625 C 59.144531 6.140625 57.910156 6.4375 56.234375 6.78125 C 54.566406 7.125 52.847656 7.296875 51.078125 7.296875 Z M 102.390625 -37.96875 C 102.816406 -37.96875 103.171875 -37.96875 103.453125 -37.96875 C 103.742188 -37.96875 104.125 -37.984375 104.59375 -38.015625 C 105.851562 -38.046875 107.113281 -38.085938 108.375 -38.140625 C 109.632812 -38.203125 110.679688 -38.34375 111.515625 -38.5625 C 112.804688 -38.738281 113.898438 -38.914062 114.796875 -39.09375 C 115.703125 -39.269531 116.75 -39.539062 117.9375 -39.90625 C 118.289062 -39.976562 118.773438 -40.113281 119.390625 -40.3125 C 120.003906 -40.507812 120.457031 -40.679688 120.75 -40.828125 C 122.007812 -41.253906 123.035156 -41.65625 123.828125 -42.03125 C 124.617188 -42.414062 125.609375 -42.945312 126.796875 -43.625 C 127.265625 -43.957031 127.738281 -44.273438 128.21875 -44.578125 C 128.707031 -44.878906 129.1875 -45.191406 129.65625 -45.515625 C 130.476562 -46.128906 131.285156 -46.847656 132.078125 -47.671875 C 132.867188 -48.503906 133.519531 -49.242188 134.03125 -49.890625 L 134.1875 -50.21875 C 134.695312 -51.15625 135.191406 -52.007812 135.671875 -52.78125 C 136.160156 -53.5625 136.53125 -54.453125 136.78125 -55.453125 C 136.957031 -55.992188 137.09375 -56.578125 137.1875 -57.203125 C 137.28125 -57.835938 137.328125 -58.476562 137.328125 -59.125 C 137.328125 -59.882812 137.234375 -60.660156 137.046875 -61.453125 C 136.765625 -62.816406 136.191406 -63.910156 135.328125 -64.734375 C 134.460938 -65.566406 133.398438 -66.21875 132.140625 -66.6875 C 130.554688 -67.195312 129.007812 -67.453125 127.5 -67.453125 C 127.101562 -67.453125 126.695312 -67.457031 126.28125 -67.46875 C 125.863281 -67.488281 125.457031 -67.5 125.0625 -67.5 C 124.414062 -67.5 123.757812 -67.476562 123.09375 -67.4375 C 122.425781 -67.40625 121.75 -67.335938 121.0625 -67.234375 C 120.269531 -67.085938 119.476562 -66.957031 118.6875 -66.84375 C 117.894531 -66.738281 117.101562 -66.597656 116.3125 -66.421875 C 115.664062 -66.273438 115.023438 -66.128906 114.390625 -65.984375 C 113.765625 -65.835938 113.21875 -65.695312 112.75 -65.5625 C 111.488281 -65.226562 110.398438 -64.925781 109.484375 -64.65625 C 108.566406 -64.394531 107.664062 -64.09375 106.78125 -63.75 C 105.90625 -63.40625 104.851562 -62.960938 103.625 -62.421875 C 103.332031 -62.316406 102.867188 -62.128906 102.234375 -61.859375 C 101.609375 -61.585938 100.976562 -61.316406 100.34375 -61.046875 C 99.71875 -60.773438 99.28125 -60.550781 99.03125 -60.375 C 97.695312 -59.65625 96.425781 -58.960938 95.21875 -58.296875 C 94.019531 -57.628906 92.789062 -56.878906 91.53125 -56.046875 C 90.738281 -55.578125 89.960938 -55.082031 89.203125 -54.5625 C 88.453125 -54.039062 87.695312 -53.53125 86.9375 -53.03125 C 85.925781 -52.382812 84.953125 -51.707031 84.015625 -51 C 83.085938 -50.300781 82.132812 -49.59375 81.15625 -48.875 C 80.800781 -48.613281 80.460938 -48.347656 80.140625 -48.078125 C 79.816406 -47.816406 79.488281 -47.539062 79.15625 -47.25 C 78.582031 -46.820312 78.097656 -46.4375 77.703125 -46.09375 C 77.304688 -45.75 76.785156 -45.320312 76.140625 -44.8125 C 75.597656 -44.414062 75.140625 -44.066406 74.765625 -43.765625 C 74.390625 -43.460938 73.984375 -43.113281 73.546875 -42.71875 C 73.117188 -42.320312 72.523438 -41.78125 71.765625 -41.09375 C 72.847656 -40.84375 73.875 -40.644531 74.84375 -40.5 C 75.8125 -40.351562 76.835938 -40.226562 77.921875 -40.125 C 78.609375 -40.050781 79.535156 -39.941406 80.703125 -39.796875 C 81.867188 -39.648438 83.144531 -39.503906 84.53125 -39.359375 C 85.914062 -39.222656 87.285156 -39.085938 88.640625 -38.953125 C 89.992188 -38.828125 91.171875 -38.726562 92.171875 -38.65625 C 92.753906 -38.625 93.40625 -38.5625 94.125 -38.46875 C 94.84375 -38.382812 95.488281 -38.34375 96.0625 -38.34375 C 96.78125 -38.269531 97.515625 -38.203125 98.265625 -38.140625 C 99.023438 -38.085938 99.769531 -38.0625 100.5 -38.0625 C 100.707031 -38.03125 101.019531 -38.019531 101.4375 -38.03125 C 101.851562 -38.050781 102.171875 -38.03125 102.390625 -37.96875 Z M 102.390625 -37.96875 "/></g></g></g><g fill="#654d28" fill-opacity="1"><g transform="translate(94.610376, 76.790251)"><g><path d="M 8.640625 -2 C 7.847656 -2 7.144531 -2.195312 6.53125 -2.59375 C 5.738281 -3.28125 5.34375 -4.160156 5.34375 -5.234375 C 5.34375 -5.453125 5.367188 -5.675781 5.421875 -5.90625 C 5.484375 -6.144531 5.53125 -6.390625 5.5625 -6.640625 C 5.632812 -6.929688 5.734375 -7.238281 5.859375 -7.5625 C 5.984375 -7.882812 6.097656 -8.171875 6.203125 -8.421875 L 6.53125 -8.90625 C 6.707031 -9.195312 7.15625 -9.835938 7.875 -10.828125 C 8.601562 -11.816406 9.363281 -12.78125 10.15625 -13.71875 C 9.21875 -13.03125 8.34375 -12.363281 7.53125 -11.71875 C 6.71875 -11.070312 5.84375 -10.390625 4.90625 -9.671875 C 4.476562 -9.347656 4.140625 -9.078125 3.890625 -8.859375 C 3.640625 -8.640625 3.296875 -8.382812 2.859375 -8.09375 C 2.210938 -7.625 1.664062 -7.265625 1.21875 -7.015625 C 0.769531 -6.765625 0.347656 -6.550781 -0.046875 -6.375 C -0.304688 -6.300781 -0.5625 -6.226562 -0.8125 -6.15625 C -1.0625 -6.082031 -1.332031 -6.046875 -1.625 -6.046875 C -1.726562 -6.046875 -1.832031 -6.054688 -1.9375 -6.078125 C -2.050781 -6.097656 -2.179688 -6.125 -2.328125 -6.15625 C -2.648438 -6.257812 -2.890625 -6.484375 -3.046875 -6.828125 C -3.210938 -7.171875 -3.296875 -7.554688 -3.296875 -7.984375 C -3.296875 -8.171875 -3.285156 -8.34375 -3.265625 -8.5 C -3.242188 -8.664062 -3.21875 -8.820312 -3.1875 -8.96875 C -2.863281 -10.257812 -2.25 -11.445312 -1.34375 -12.53125 C -0.625 -13.394531 0.109375 -14.222656 0.859375 -15.015625 C 1.617188 -15.804688 2.46875 -16.507812 3.40625 -17.125 C 4.050781 -17.550781 4.722656 -17.90625 5.421875 -18.1875 C 6.128906 -18.476562 6.84375 -18.71875 7.5625 -18.90625 C 7.738281 -18.976562 7.914062 -19.015625 8.09375 -19.015625 C 8.28125 -19.015625 8.460938 -19.015625 8.640625 -19.015625 C 9.429688 -19.015625 10.171875 -18.832031 10.859375 -18.46875 C 11.179688 -18.25 11.539062 -17.96875 11.9375 -17.625 C 12.332031 -17.289062 12.617188 -16.867188 12.796875 -16.359375 L 12.75 -16.3125 C 13.25 -16.707031 13.738281 -17.109375 14.21875 -17.515625 C 14.707031 -17.929688 15.1875 -18.320312 15.65625 -18.6875 C 16.019531 -18.9375 16.378906 -19.160156 16.734375 -19.359375 C 17.097656 -19.554688 17.515625 -19.617188 17.984375 -19.546875 C 18.410156 -19.367188 18.625 -19.023438 18.625 -18.515625 C 18.625 -18.441406 18.625 -18.351562 18.625 -18.25 C 18.625 -18.144531 18.609375 -18.054688 18.578125 -17.984375 C 18.398438 -17.617188 18.140625 -17.300781 17.796875 -17.03125 C 17.453125 -16.757812 17.132812 -16.484375 16.84375 -16.203125 C 16.488281 -15.878906 16.128906 -15.5625 15.765625 -15.25 C 15.410156 -14.945312 15.035156 -14.648438 14.640625 -14.359375 C 13.804688 -13.710938 13.035156 -13.046875 12.328125 -12.359375 C 11.628906 -11.679688 10.90625 -10.925781 10.15625 -10.09375 C 9.863281 -9.769531 9.617188 -9.507812 9.421875 -9.3125 C 9.222656 -9.113281 9.050781 -8.925781 8.90625 -8.75 C 8.800781 -8.644531 8.703125 -8.535156 8.609375 -8.421875 C 8.523438 -8.316406 8.445312 -8.207031 8.375 -8.09375 C 8.226562 -7.957031 8.097656 -7.789062 7.984375 -7.59375 C 7.878906 -7.394531 7.753906 -7.1875 7.609375 -6.96875 C 7.429688 -6.71875 7.269531 -6.421875 7.125 -6.078125 C 6.976562 -5.734375 6.867188 -5.398438 6.796875 -5.078125 C 6.691406 -4.828125 6.640625 -4.519531 6.640625 -4.15625 C 6.640625 -3.6875 6.785156 -3.3125 7.078125 -3.03125 C 7.285156 -2.84375 7.539062 -2.710938 7.84375 -2.640625 C 8.15625 -2.566406 8.457031 -2.53125 8.75 -2.53125 C 9.144531 -2.53125 9.515625 -2.566406 9.859375 -2.640625 C 10.203125 -2.710938 10.5 -2.804688 10.75 -2.921875 C 11.539062 -3.203125 12.171875 -3.46875 12.640625 -3.71875 C 13.109375 -3.976562 13.773438 -4.34375 14.640625 -4.8125 C 15.109375 -5.019531 15.457031 -5.195312 15.6875 -5.34375 C 15.914062 -5.488281 16.195312 -5.648438 16.53125 -5.828125 C 16.8125 -6.015625 17.238281 -6.273438 17.8125 -6.609375 C 18.394531 -6.953125 19.019531 -7.332031 19.6875 -7.75 C 20.351562 -8.164062 20.953125 -8.550781 21.484375 -8.90625 C 22.023438 -9.269531 22.40625 -9.523438 22.625 -9.671875 C 23.34375 -10.171875 24.097656 -10.707031 24.890625 -11.28125 C 25.679688 -11.863281 26.472656 -12.441406 27.265625 -13.015625 C 27.453125 -13.160156 27.648438 -13.3125 27.859375 -13.46875 C 28.078125 -13.632812 28.257812 -13.695312 28.40625 -13.65625 C 28.582031 -13.519531 28.617188 -13.359375 28.515625 -13.171875 L 28.03125 -12.796875 C 27.238281 -12.222656 26.347656 -11.578125 25.359375 -10.859375 C 24.367188 -10.140625 23.382812 -9.4375 22.40625 -8.75 C 21.4375 -8.0625 20.570312 -7.484375 19.8125 -7.015625 C 18.738281 -6.367188 17.640625 -5.738281 16.515625 -5.125 C 15.398438 -4.519531 14.234375 -3.890625 13.015625 -3.234375 C 12.765625 -3.128906 12.519531 -3.015625 12.28125 -2.890625 C 12.050781 -2.765625 11.789062 -2.664062 11.5 -2.59375 C 11.070312 -2.445312 10.613281 -2.3125 10.125 -2.1875 C 9.632812 -2.0625 9.140625 -2 8.640625 -2 Z M -1.296875 -6.640625 C -1.191406 -6.640625 -0.992188 -6.675781 -0.703125 -6.75 C -0.015625 -7 0.691406 -7.359375 1.421875 -7.828125 C 2.160156 -8.296875 2.820312 -8.765625 3.40625 -9.234375 C 4.300781 -9.953125 5.132812 -10.609375 5.90625 -11.203125 C 6.6875 -11.796875 7.4375 -12.363281 8.15625 -12.90625 C 8.769531 -13.332031 9.390625 -13.78125 10.015625 -14.25 C 10.648438 -14.71875 11.304688 -15.242188 11.984375 -15.828125 C 11.835938 -16.109375 11.492188 -16.3125 10.953125 -16.4375 C 10.421875 -16.5625 10.046875 -16.59375 9.828125 -16.53125 C 9.210938 -16.414062 8.597656 -16.273438 7.984375 -16.109375 C 7.378906 -15.953125 6.785156 -15.710938 6.203125 -15.390625 C 4.804688 -14.628906 3.46875 -13.632812 2.1875 -12.40625 C 0.90625 -11.1875 -0.144531 -10.113281 -0.96875 -9.1875 C -1.332031 -8.820312 -1.582031 -8.476562 -1.71875 -8.15625 C -1.863281 -7.832031 -1.9375 -7.546875 -1.9375 -7.296875 C -1.9375 -6.859375 -1.722656 -6.640625 -1.296875 -6.640625 Z M -1.296875 -6.640625 "/></g></g></g><g fill="#654d28" fill-opacity="1"><g transform="translate(122.582287, 76.790251)"><g><path d="M 49.1875 -48.21875 C 49.226562 -48.113281 49.253906 -48.003906 49.265625 -47.890625 C 49.285156 -47.785156 49.296875 -47.660156 49.296875 -47.515625 C 49.296875 -47.265625 49.25 -46.992188 49.15625 -46.703125 C 49.070312 -46.421875 48.957031 -46.15625 48.8125 -45.90625 C 48.414062 -45.175781 47.984375 -44.5 47.515625 -43.875 C 47.046875 -43.25 46.507812 -42.570312 45.90625 -41.84375 C 45.4375 -41.414062 44.972656 -40.976562 44.515625 -40.53125 C 44.066406 -40.082031 43.609375 -39.625 43.140625 -39.15625 C 42.671875 -38.6875 42.210938 -38.269531 41.765625 -37.90625 C 41.316406 -37.550781 40.820312 -37.15625 40.28125 -36.71875 C 39.882812 -36.46875 39.5 -36.1875 39.125 -35.875 C 38.75 -35.570312 38.363281 -35.273438 37.96875 -34.984375 C 37.3125 -34.484375 36.644531 -34.035156 35.96875 -33.640625 L 35.421875 -33.3125 C 34.085938 -32.3125 32.851562 -31.46875 31.71875 -30.78125 C 30.59375 -30.09375 29.453125 -29.46875 28.296875 -28.90625 C 27.140625 -28.351562 25.84375 -27.753906 24.40625 -27.109375 C 22.96875 -26.460938 21.609375 -25.941406 20.328125 -25.546875 C 19.046875 -25.148438 17.757812 -24.820312 16.46875 -24.5625 L 14.46875 -23.109375 C 13.96875 -22.710938 13.460938 -22.304688 12.953125 -21.890625 C 12.453125 -21.484375 11.953125 -21.082031 11.453125 -20.6875 C 10.515625 -19.925781 9.578125 -19.15625 8.640625 -18.375 C 7.703125 -17.601562 6.765625 -16.820312 5.828125 -16.03125 C 5.796875 -16.03125 5.625 -15.878906 5.3125 -15.578125 C 5.007812 -15.273438 4.609375 -14.890625 4.109375 -14.421875 C 5.722656 -14.992188 7.429688 -15.441406 9.234375 -15.765625 C 9.628906 -15.835938 10.023438 -15.890625 10.421875 -15.921875 C 10.816406 -15.960938 11.195312 -15.984375 11.5625 -15.984375 C 12.851562 -15.984375 14.09375 -15.769531 15.28125 -15.34375 C 15.570312 -15.226562 15.832031 -15.097656 16.0625 -14.953125 C 16.300781 -14.804688 16.488281 -14.59375 16.625 -14.3125 C 16.695312 -14.164062 16.734375 -14.035156 16.734375 -13.921875 C 16.734375 -13.816406 16.734375 -13.691406 16.734375 -13.546875 C 16.734375 -12.972656 16.46875 -12.414062 15.9375 -11.875 C 15.070312 -11.15625 14.046875 -10.597656 12.859375 -10.203125 C 11.597656 -9.773438 10.453125 -9.46875 9.421875 -9.28125 C 8.398438 -9.101562 7.3125 -9.015625 6.15625 -9.015625 C 5.289062 -9.015625 4.28125 -9.070312 3.125 -9.1875 C 2.769531 -9.25 2.382812 -9.328125 1.96875 -9.421875 C 1.550781 -9.515625 1.203125 -9.632812 0.921875 -9.78125 C 0.804688 -8.988281 0.75 -8.265625 0.75 -7.609375 C 0.75 -6.390625 0.894531 -5.382812 1.1875 -4.59375 C 1.476562 -3.800781 1.765625 -3.207031 2.046875 -2.8125 C 2.234375 -2.5625 2.40625 -2.351562 2.5625 -2.1875 C 2.726562 -2.019531 2.914062 -1.8125 3.125 -1.5625 C 3.78125 -1.09375 4.375 -0.738281 4.90625 -0.5 C 5.445312 -0.269531 6.078125 -0.101562 6.796875 0 C 7.160156 0.03125 7.53125 0.0703125 7.90625 0.125 C 8.289062 0.1875 8.660156 0.21875 9.015625 0.21875 C 10.054688 0.25 11.171875 0.078125 12.359375 -0.296875 C 13.546875 -0.671875 14.609375 -1.078125 15.546875 -1.515625 C 17.347656 -2.335938 19.09375 -3.289062 20.78125 -4.375 C 22.476562 -5.457031 24.171875 -6.5 25.859375 -7.5 C 26.472656 -7.894531 27.054688 -8.289062 27.609375 -8.6875 C 28.171875 -9.082031 28.722656 -9.476562 29.265625 -9.875 C 30.742188 -10.882812 32.164062 -11.929688 33.53125 -13.015625 C 33.707031 -13.160156 33.910156 -13.3125 34.140625 -13.46875 C 34.378906 -13.632812 34.535156 -13.695312 34.609375 -13.65625 C 34.722656 -13.625 34.78125 -13.554688 34.78125 -13.453125 C 34.78125 -13.191406 34.597656 -12.972656 34.234375 -12.796875 C 33.734375 -12.441406 33.335938 -12.144531 33.046875 -11.90625 C 32.753906 -11.675781 32.445312 -11.429688 32.125 -11.171875 C 31.332031 -10.523438 30.503906 -9.914062 29.640625 -9.34375 C 28.773438 -8.769531 27.910156 -8.191406 27.046875 -7.609375 C 25.929688 -6.890625 24.992188 -6.273438 24.234375 -5.765625 C 23.484375 -5.265625 22.550781 -4.65625 21.4375 -3.9375 C 20.675781 -3.582031 19.851562 -3.132812 18.96875 -2.59375 C 18.09375 -2.050781 17.28125 -1.582031 16.53125 -1.1875 C 14.9375 -0.425781 13.28125 0.164062 11.5625 0.59375 C 11.125 0.664062 10.707031 0.726562 10.3125 0.78125 C 9.914062 0.832031 9.503906 0.859375 9.078125 0.859375 C 8.816406 0.859375 8.550781 0.847656 8.28125 0.828125 C 8.019531 0.816406 7.742188 0.789062 7.453125 0.75 C 7.160156 0.71875 6.863281 0.664062 6.5625 0.59375 C 6.257812 0.519531 5.960938 0.445312 5.671875 0.375 C 5.054688 0.195312 4.476562 -0.0625 3.9375 -0.40625 C 3.394531 -0.75 2.859375 -1.132812 2.328125 -1.5625 C 2.285156 -1.632812 2.226562 -1.722656 2.15625 -1.828125 C 2.082031 -1.941406 1.992188 -2.050781 1.890625 -2.15625 C 1.421875 -2.769531 1.050781 -3.347656 0.78125 -3.890625 C 0.507812 -4.429688 0.320312 -5.097656 0.21875 -5.890625 C 0.175781 -6.242188 0.144531 -6.566406 0.125 -6.859375 C 0.113281 -7.148438 0.109375 -7.472656 0.109375 -7.828125 C 0.109375 -8.078125 0.113281 -8.347656 0.125 -8.640625 C 0.144531 -8.929688 0.175781 -9.253906 0.21875 -9.609375 C -0.175781 -9.359375 -0.507812 -9.125 -0.78125 -8.90625 C -1.050781 -8.695312 -1.238281 -8.554688 -1.34375 -8.484375 C -2.03125 -7.972656 -2.585938 -7.53125 -3.015625 -7.15625 C -3.453125 -6.78125 -4.050781 -6.265625 -4.8125 -5.609375 C -5.675781 -4.859375 -6.394531 -4.210938 -6.96875 -3.671875 C -7.539062 -3.128906 -8.066406 -2.625 -8.546875 -2.15625 C -9.035156 -1.6875 -9.585938 -1.164062 -10.203125 -0.59375 C -10.347656 -0.445312 -10.5625 -0.289062 -10.84375 -0.125 C -11.132812 0.03125 -11.515625 0.0859375 -11.984375 0.046875 C -12.203125 0.015625 -12.445312 -0.0625 -12.71875 -0.1875 C -12.988281 -0.3125 -13.125 -0.5 -13.125 -0.75 C -13.125 -0.96875 -13.035156 -1.164062 -12.859375 -1.34375 C -12.640625 -1.675781 -12.375 -2.007812 -12.0625 -2.34375 C -11.757812 -2.6875 -11.320312 -3.128906 -10.75 -3.671875 C -10.101562 -4.316406 -9.414062 -5.007812 -8.6875 -5.75 C -7.96875 -6.488281 -7.210938 -7.269531 -6.421875 -8.09375 C -5.378906 -9.144531 -4.300781 -10.15625 -3.1875 -11.125 C -2.070312 -12.09375 -0.992188 -13.117188 0.046875 -14.203125 C 0.773438 -14.773438 1.441406 -15.375 2.046875 -16 C 2.660156 -16.632812 3.347656 -17.1875 4.109375 -17.65625 C 4.242188 -17.726562 4.359375 -17.828125 4.453125 -17.953125 C 4.546875 -18.078125 4.664062 -18.195312 4.8125 -18.3125 C 5.28125 -18.78125 5.738281 -19.203125 6.1875 -19.578125 C 6.632812 -19.953125 7.128906 -20.390625 7.671875 -20.890625 C 7.921875 -21.078125 8.144531 -21.273438 8.34375 -21.484375 C 8.539062 -21.703125 8.75 -21.921875 8.96875 -22.140625 L 12.359375 -24.953125 C 13.085938 -25.671875 13.851562 -26.34375 14.65625 -26.96875 C 15.46875 -27.601562 16.269531 -28.242188 17.0625 -28.890625 C 18 -29.609375 18.90625 -30.34375 19.78125 -31.09375 C 20.664062 -31.851562 21.5625 -32.578125 22.46875 -33.265625 C 23.289062 -33.878906 24.085938 -34.519531 24.859375 -35.1875 C 25.640625 -35.851562 26.425781 -36.507812 27.21875 -37.15625 C 27.71875 -37.582031 28.238281 -38.003906 28.78125 -38.421875 C 29.320312 -38.835938 29.84375 -39.257812 30.34375 -39.6875 L 34.5625 -42.9375 C 36.039062 -44.050781 37.550781 -45.066406 39.09375 -45.984375 C 40.644531 -46.898438 42.25 -47.71875 43.90625 -48.4375 C 44.40625 -48.6875 44.96875 -48.898438 45.59375 -49.078125 C 46.226562 -49.265625 46.78125 -49.359375 47.25 -49.359375 C 47.644531 -49.359375 48.03125 -49.285156 48.40625 -49.140625 C 48.789062 -48.992188 49.050781 -48.6875 49.1875 -48.21875 Z M 48.546875 -46.984375 C 48.617188 -47.191406 48.65625 -47.351562 48.65625 -47.46875 C 48.65625 -47.863281 48.398438 -48.0625 47.890625 -48.0625 C 47.753906 -48.0625 47.585938 -48.039062 47.390625 -48 C 47.191406 -47.96875 46.960938 -47.898438 46.703125 -47.796875 C 45.378906 -47.253906 44.003906 -46.492188 42.578125 -45.515625 C 41.160156 -44.546875 39.851562 -43.628906 38.65625 -42.765625 C 37.1875 -41.648438 35.828125 -40.597656 34.578125 -39.609375 C 33.335938 -38.617188 31.984375 -37.492188 30.515625 -36.234375 C 30.148438 -35.910156 29.722656 -35.550781 29.234375 -35.15625 C 28.753906 -34.757812 28.257812 -34.363281 27.75 -33.96875 C 27.070312 -33.5 26.40625 -32.972656 25.75 -32.390625 C 25.101562 -31.816406 24.441406 -31.257812 23.765625 -30.71875 C 22.859375 -30.039062 21.953125 -29.320312 21.046875 -28.5625 C 20.148438 -27.8125 19.253906 -27.078125 18.359375 -26.359375 C 18.328125 -26.316406 18.253906 -26.25 18.140625 -26.15625 C 18.035156 -26.070312 17.835938 -25.882812 17.546875 -25.59375 C 17.910156 -25.632812 18.457031 -25.757812 19.1875 -25.96875 C 19.925781 -26.1875 20.476562 -26.367188 20.84375 -26.515625 C 21.8125 -26.910156 22.84375 -27.320312 23.9375 -27.75 C 25.039062 -28.1875 26.0625 -28.640625 27 -29.109375 C 28.363281 -29.785156 29.6875 -30.484375 30.96875 -31.203125 C 32.25 -31.929688 33.5 -32.742188 34.71875 -33.640625 C 35.257812 -34.003906 35.769531 -34.335938 36.25 -34.640625 C 36.738281 -34.941406 37.144531 -35.222656 37.46875 -35.484375 C 38.332031 -36.015625 39.207031 -36.640625 40.09375 -37.359375 C 40.976562 -38.085938 41.78125 -38.773438 42.5 -39.421875 C 43.539062 -40.359375 44.5 -41.289062 45.375 -42.21875 C 46.257812 -43.15625 47.066406 -44.21875 47.796875 -45.40625 C 47.972656 -45.695312 48.125 -45.957031 48.25 -46.1875 C 48.375 -46.425781 48.472656 -46.691406 48.546875 -46.984375 Z M 13.171875 -13.65625 C 12.128906 -13.625 11.128906 -13.5 10.171875 -13.28125 C 9.222656 -13.0625 8.226562 -12.789062 7.1875 -12.46875 C 6.25 -12.21875 5.25 -11.90625 4.1875 -11.53125 C 3.125 -11.15625 2.160156 -10.710938 1.296875 -10.203125 C 1.617188 -10.023438 2.113281 -9.878906 2.78125 -9.765625 C 3.445312 -9.660156 3.925781 -9.609375 4.21875 -9.609375 C 5.289062 -9.578125 6.3125 -9.601562 7.28125 -9.6875 C 8.257812 -9.78125 9.253906 -9.898438 10.265625 -10.046875 C 11.597656 -10.296875 12.945312 -10.742188 14.3125 -11.390625 C 14.488281 -11.503906 14.765625 -11.722656 15.140625 -12.046875 C 15.523438 -12.367188 15.734375 -12.65625 15.765625 -12.90625 C 15.734375 -13.195312 15.390625 -13.382812 14.734375 -13.46875 C 14.085938 -13.5625 13.566406 -13.625 13.171875 -13.65625 Z M 13.171875 -13.65625 "/></g></g></g><g fill="#654d28" fill-opacity="1"><g transform="translate(156.818167, 76.790251)"><g><path d="M 1.78125 -2.046875 C 1.414062 -2.046875 1.035156 -2.0625 0.640625 -2.09375 C 0.242188 -2.132812 -0.09375 -2.226562 -0.375 -2.375 C -0.625 -2.445312 -0.863281 -2.546875 -1.09375 -2.671875 C -1.332031 -2.796875 -1.582031 -2.929688 -1.84375 -3.078125 C -2.414062 -3.472656 -2.816406 -3.941406 -3.046875 -4.484375 C -3.285156 -5.023438 -3.492188 -5.65625 -3.671875 -6.375 C -3.671875 -6.59375 -3.648438 -6.863281 -3.609375 -7.1875 C -3.578125 -7.507812 -3.546875 -7.773438 -3.515625 -7.984375 C -3.367188 -8.785156 -3.234375 -9.328125 -3.109375 -9.609375 C -2.984375 -9.898438 -2.789062 -10.242188 -2.53125 -10.640625 C -2.207031 -11.253906 -1.835938 -11.820312 -1.421875 -12.34375 C -1.015625 -12.863281 -0.554688 -13.394531 -0.046875 -13.9375 C 0.234375 -14.21875 0.523438 -14.503906 0.828125 -14.796875 C 1.140625 -15.085938 1.441406 -15.359375 1.734375 -15.609375 C 2.660156 -16.472656 3.632812 -17.242188 4.65625 -17.921875 C 5.6875 -18.609375 6.765625 -19.238281 7.890625 -19.8125 C 8.785156 -20.28125 9.707031 -20.640625 10.65625 -20.890625 C 11.613281 -21.148438 12.597656 -21.28125 13.609375 -21.28125 C 14.003906 -21.28125 14.351562 -21.25 14.65625 -21.1875 C 14.96875 -21.132812 15.265625 -20.984375 15.546875 -20.734375 C 15.867188 -20.304688 16.03125 -19.859375 16.03125 -19.390625 C 16.03125 -19.097656 15.941406 -18.738281 15.765625 -18.3125 C 15.117188 -17.257812 14.328125 -16.429688 13.390625 -15.828125 C 11.878906 -14.742188 10.492188 -13.929688 9.234375 -13.390625 C 7.972656 -12.847656 6.390625 -12.378906 4.484375 -11.984375 C 4.160156 -11.953125 3.816406 -11.90625 3.453125 -11.84375 C 3.097656 -11.789062 2.773438 -11.765625 2.484375 -11.765625 C 2.191406 -11.765625 1.992188 -11.785156 1.890625 -11.828125 C 1.523438 -11.578125 1.257812 -11.367188 1.09375 -11.203125 C 0.9375 -11.046875 0.753906 -10.800781 0.546875 -10.46875 L 0.484375 -10.46875 C 0.234375 -10.1875 -0.0507812 -9.851562 -0.375 -9.46875 C -0.695312 -9.09375 -0.96875 -8.691406 -1.1875 -8.265625 C -1.40625 -7.898438 -1.582031 -7.492188 -1.71875 -7.046875 C -1.863281 -6.597656 -1.9375 -6.15625 -1.9375 -5.71875 C -1.9375 -5.363281 -1.875 -5.015625 -1.75 -4.671875 C -1.625 -4.328125 -1.421875 -4.007812 -1.140625 -3.71875 C -0.671875 -3.289062 -0.25 -3.019531 0.125 -2.90625 C 0.507812 -2.800781 1.097656 -2.710938 1.890625 -2.640625 C 2.535156 -2.640625 3.117188 -2.691406 3.640625 -2.796875 C 4.160156 -2.910156 4.617188 -3.019531 5.015625 -3.125 C 5.671875 -3.3125 6.210938 -3.472656 6.640625 -3.609375 C 7.078125 -3.753906 7.582031 -3.898438 8.15625 -4.046875 C 9.300781 -4.484375 10.476562 -5 11.6875 -5.59375 C 12.894531 -6.1875 14.144531 -6.804688 15.4375 -7.453125 C 16.488281 -7.992188 17.445312 -8.5625 18.3125 -9.15625 C 19.175781 -9.75 20.128906 -10.40625 21.171875 -11.125 C 21.640625 -11.445312 22.050781 -11.742188 22.40625 -12.015625 C 22.769531 -12.285156 23.222656 -12.617188 23.765625 -13.015625 C 24.046875 -13.191406 24.3125 -13.367188 24.5625 -13.546875 C 24.820312 -13.734375 24.96875 -13.769531 25 -13.65625 C 25.070312 -13.582031 25.109375 -13.492188 25.109375 -13.390625 C 25.109375 -13.316406 24.710938 -12.972656 23.921875 -12.359375 C 22.910156 -11.566406 21.972656 -10.875 21.109375 -10.28125 C 20.242188 -9.6875 19.289062 -9.066406 18.25 -8.421875 C 17.0625 -7.703125 15.953125 -7.070312 14.921875 -6.53125 C 13.898438 -5.988281 12.757812 -5.414062 11.5 -4.8125 C 10.164062 -4.195312 8.796875 -3.632812 7.390625 -3.125 C 5.992188 -2.625 4.554688 -2.285156 3.078125 -2.109375 C 2.859375 -2.066406 2.640625 -2.046875 2.421875 -2.046875 C 2.210938 -2.046875 2 -2.046875 1.78125 -2.046875 Z M 2.328125 -12.3125 C 2.679688 -12.28125 3.207031 -12.296875 3.90625 -12.359375 C 4.613281 -12.429688 5.09375 -12.523438 5.34375 -12.640625 C 6.382812 -12.921875 7.351562 -13.238281 8.25 -13.59375 C 9.15625 -13.957031 10.0625 -14.375 10.96875 -14.84375 C 11.613281 -15.207031 12.203125 -15.59375 12.734375 -16 C 13.273438 -16.414062 13.800781 -16.859375 14.3125 -17.328125 C 14.457031 -17.472656 14.65625 -17.753906 14.90625 -18.171875 C 15.15625 -18.585938 15.242188 -18.921875 15.171875 -19.171875 C 15.097656 -19.347656 14.828125 -19.4375 14.359375 -19.4375 C 14.035156 -19.4375 13.691406 -19.398438 13.328125 -19.328125 C 12.972656 -19.253906 12.648438 -19.179688 12.359375 -19.109375 C 11.429688 -18.753906 10.539062 -18.320312 9.6875 -17.8125 C 8.84375 -17.3125 8.007812 -16.789062 7.1875 -16.25 C 6.394531 -15.675781 5.546875 -15.066406 4.640625 -14.421875 C 3.742188 -13.773438 2.972656 -13.070312 2.328125 -12.3125 Z M 2.328125 -12.3125 "/></g></g></g></g></g></g><g fill="#654d28" fill-opacity="1"><g transform="translate(52.867139, 158.111611)"><g><path d="M 5.109375 0.21875 C 4.242188 0.21875 3.46875 0.0078125 2.78125 -0.40625 C 2.101562 -0.820312 1.570312 -1.382812 1.1875 -2.09375 C 0.800781 -2.8125 0.609375 -3.609375 0.609375 -4.484375 C 0.609375 -5.347656 0.78125 -6.15625 1.125 -6.90625 C 1.476562 -7.664062 2 -8.28125 2.6875 -8.75 C 3.382812 -9.226562 4.21875 -9.46875 5.1875 -9.46875 C 6.164062 -9.46875 7.054688 -9.195312 7.859375 -8.65625 L 7.796875 -9.375 L 8.515625 -9.375 L 8.515625 -6.3125 L 8.03125 -6.3125 C 7.945312 -7.125 7.660156 -7.757812 7.171875 -8.21875 C 6.679688 -8.6875 6.050781 -8.921875 5.28125 -8.921875 C 4.65625 -8.921875 4.082031 -8.742188 3.5625 -8.390625 C 3.050781 -8.046875 2.644531 -7.550781 2.34375 -6.90625 C 2.050781 -6.269531 1.90625 -5.523438 1.90625 -4.671875 C 1.90625 -3.867188 2.0625 -3.144531 2.375 -2.5 C 2.695312 -1.863281 3.125 -1.363281 3.65625 -1 C 4.195312 -0.644531 4.796875 -0.46875 5.453125 -0.46875 C 6.035156 -0.46875 6.597656 -0.597656 7.140625 -0.859375 C 7.691406 -1.128906 8.144531 -1.507812 8.5 -2 L 8.84375 -1.71875 C 8.332031 -1 7.742188 -0.492188 7.078125 -0.203125 C 6.421875 0.078125 5.765625 0.21875 5.109375 0.21875 Z M 5.109375 0.21875 "/></g></g></g><g fill="#654d28" fill-opacity="1"><g transform="translate(61.340704, 158.111611)"><g><path d="M 5.03125 0.21875 C 4.101562 0.21875 3.367188 0.0507812 2.828125 -0.28125 C 2.285156 -0.613281 1.894531 -1.117188 1.65625 -1.796875 C 1.425781 -2.484375 1.3125 -3.382812 1.3125 -4.5 L 1.3125 -7.1875 C 1.3125 -7.75 1.328125 -8.257812 1.359375 -8.71875 L 0.40625 -8.6875 L 0.40625 -9.25 L 3.375 -9.25 L 3.375 -8.8125 C 2.988281 -8.8125 2.738281 -8.707031 2.625 -8.5 C 2.519531 -8.300781 2.46875 -8.054688 2.46875 -7.765625 L 2.46875 -4.4375 C 2.46875 -3.675781 2.535156 -3.015625 2.671875 -2.453125 C 2.804688 -1.890625 3.070312 -1.429688 3.46875 -1.078125 C 3.875 -0.722656 4.453125 -0.546875 5.203125 -0.546875 C 6.117188 -0.546875 6.800781 -0.859375 7.25 -1.484375 C 7.695312 -2.117188 7.925781 -2.976562 7.9375 -4.0625 L 7.984375 -7.765625 C 7.984375 -8.140625 8 -8.457031 8.03125 -8.71875 L 7.078125 -8.671875 L 7.078125 -9.25 L 9.546875 -9.25 L 9.546875 -8.8125 C 9.222656 -8.800781 8.992188 -8.726562 8.859375 -8.59375 C 8.734375 -8.46875 8.660156 -8.3125 8.640625 -8.125 C 8.628906 -7.945312 8.625 -7.632812 8.625 -7.1875 L 8.59375 -4.125 C 8.582031 -2.84375 8.296875 -1.796875 7.734375 -0.984375 C 7.179688 -0.179688 6.28125 0.21875 5.03125 0.21875 Z M 5.03125 0.21875 "/></g></g></g><g fill="#654d28" fill-opacity="1"><g transform="translate(70.513914, 158.111611)"><g><path d="M 0.734375 -0.4375 C 1.035156 -0.445312 1.253906 -0.515625 1.390625 -0.640625 C 1.523438 -0.773438 1.597656 -0.929688 1.609375 -1.109375 C 1.628906 -1.296875 1.640625 -1.613281 1.640625 -2.0625 L 1.640625 -7.765625 C 1.640625 -8.140625 1.648438 -8.457031 1.671875 -8.71875 L 0.734375 -8.671875 L 0.734375 -9.25 L 3.703125 -9.25 L 3.703125 -8.8125 C 3.390625 -8.800781 3.164062 -8.726562 3.03125 -8.59375 C 2.90625 -8.46875 2.832031 -8.3125 2.8125 -8.125 C 2.800781 -7.945312 2.796875 -7.632812 2.796875 -7.1875 L 2.796875 -5.015625 L 3.78125 -5.015625 L 5.4375 -7.625 C 5.757812 -8.125 6.070312 -8.492188 6.375 -8.734375 L 5.5625 -8.71875 L 5.5625 -9.25 L 8.40625 -9.25 L 8.40625 -8.8125 C 8 -8.78125 7.65625 -8.710938 7.375 -8.609375 C 7.101562 -8.515625 6.832031 -8.34375 6.5625 -8.09375 C 6.300781 -7.851562 6.023438 -7.5 5.734375 -7.03125 L 4.4375 -4.96875 C 4.632812 -4.84375 4.800781 -4.707031 4.9375 -4.5625 C 5.082031 -4.414062 5.207031 -4.269531 5.3125 -4.125 C 5.425781 -3.976562 5.5 -3.882812 5.53125 -3.84375 L 7.015625 -1.875 C 7.347656 -1.445312 7.617188 -1.128906 7.828125 -0.921875 C 8.046875 -0.722656 8.234375 -0.59375 8.390625 -0.53125 C 8.546875 -0.46875 8.738281 -0.4375 8.96875 -0.4375 L 8.96875 0 L 7.34375 0 C 7.113281 0 6.671875 -0.429688 6.015625 -1.296875 L 4.421875 -3.4375 C 4.210938 -3.707031 4.03125 -3.929688 3.875 -4.109375 C 3.71875 -4.285156 3.570312 -4.414062 3.4375 -4.5 L 2.796875 -4.5 L 2.796875 -1.578125 C 2.796875 -1.109375 2.78125 -0.757812 2.75 -0.53125 L 3.703125 -0.578125 L 3.703125 0 L 0.734375 0 Z M 0.734375 -0.4375 "/></g></g></g><g fill="#654d28" fill-opacity="1"><g transform="translate(78.776278, 158.111611)"><g><path d="M 0.734375 -0.4375 C 1.035156 -0.445312 1.253906 -0.515625 1.390625 -0.640625 C 1.523438 -0.773438 1.597656 -0.929688 1.609375 -1.109375 C 1.628906 -1.296875 1.640625 -1.613281 1.640625 -2.0625 L 1.640625 -7.765625 C 1.640625 -8.140625 1.648438 -8.457031 1.671875 -8.71875 L 0.734375 -8.671875 L 0.734375 -9.25 C 1.648438 -9.269531 2.335938 -9.28125 2.796875 -9.28125 C 3.222656 -9.28125 3.539062 -9.273438 3.75 -9.265625 C 5 -9.242188 5.910156 -9.03125 6.484375 -8.625 C 7.054688 -8.226562 7.34375 -7.65625 7.34375 -6.90625 C 7.351562 -6.289062 7.171875 -5.738281 6.796875 -5.25 C 6.429688 -4.769531 5.789062 -4.4375 4.875 -4.25 C 5.03125 -4.132812 5.164062 -4 5.28125 -3.84375 C 5.40625 -3.6875 5.578125 -3.441406 5.796875 -3.109375 L 6.6875 -1.6875 C 6.882812 -1.382812 7.046875 -1.148438 7.171875 -0.984375 C 7.296875 -0.816406 7.445312 -0.679688 7.625 -0.578125 C 7.8125 -0.484375 8.035156 -0.4375 8.296875 -0.4375 L 8.296875 0 L 6.640625 0 C 6.398438 -0.195312 6.195312 -0.40625 6.03125 -0.625 C 5.875 -0.84375 5.679688 -1.125 5.453125 -1.46875 L 4.578125 -2.875 L 4.40625 -3.15625 C 4.257812 -3.394531 4.132812 -3.585938 4.03125 -3.734375 C 3.925781 -3.890625 3.8125 -4.023438 3.6875 -4.140625 C 3.601562 -4.128906 3.476562 -4.125 3.3125 -4.125 C 3.082031 -4.125 2.910156 -4.128906 2.796875 -4.140625 L 2.796875 -1.578125 C 2.796875 -1.109375 2.78125 -0.757812 2.75 -0.53125 L 3.703125 -0.578125 L 3.703125 0 L 0.734375 0 Z M 3.375 -4.625 C 5.164062 -4.625 6.0625 -5.332031 6.0625 -6.75 C 6.0625 -7.425781 5.867188 -7.929688 5.484375 -8.265625 C 5.097656 -8.597656 4.503906 -8.765625 3.703125 -8.765625 C 3.390625 -8.765625 3.164062 -8.703125 3.03125 -8.578125 C 2.90625 -8.453125 2.832031 -8.300781 2.8125 -8.125 C 2.800781 -7.945312 2.796875 -7.632812 2.796875 -7.1875 L 2.796875 -4.65625 C 3.054688 -4.632812 3.25 -4.625 3.375 -4.625 Z M 3.375 -4.625 "/></g></g></g><g fill="#654d28" fill-opacity="1"><g transform="translate(86.312611, 158.111611)"><g><path d="M -0.078125 -0.4375 C 0.140625 -0.4375 0.3125 -0.484375 0.4375 -0.578125 C 0.570312 -0.679688 0.679688 -0.816406 0.765625 -0.984375 C 0.859375 -1.148438 0.960938 -1.394531 1.078125 -1.71875 L 1.203125 -2.09375 L 3.921875 -9.5 L 4.25 -9.5 L 7.1875 -1.984375 C 7.289062 -1.742188 7.375 -1.484375 7.4375 -1.203125 C 7.507812 -0.929688 7.539062 -0.707031 7.53125 -0.53125 L 8.4375 -0.578125 L 8.4375 0 L 5.40625 0 L 5.40625 -0.4375 C 5.925781 -0.445312 6.1875 -0.660156 6.1875 -1.078125 C 6.1875 -1.242188 6.140625 -1.445312 6.046875 -1.6875 L 5.59375 -2.9375 L 2.15625 -2.859375 C 2.019531 -2.492188 1.863281 -2.019531 1.6875 -1.4375 C 1.601562 -1.144531 1.492188 -0.84375 1.359375 -0.53125 L 2.390625 -0.578125 L 2.390625 0 L -0.078125 0 Z M 5.40625 -3.421875 L 4.46875 -5.953125 L 3.875 -7.578125 L 3.84375 -7.578125 L 3.296875 -6.078125 L 2.578125 -4.078125 L 2.359375 -3.421875 Z M 5.578125 -11.21875 C 5.859375 -11.394531 6 -11.585938 6 -11.796875 C 6 -11.910156 5.972656 -12.003906 5.921875 -12.078125 C 5.898438 -12.117188 5.851562 -12.15625 5.78125 -12.1875 C 5.71875 -12.226562 5.644531 -12.25 5.5625 -12.25 C 5.394531 -12.25 5.222656 -12.171875 5.046875 -12.015625 L 3.375 -10.421875 L 3.671875 -10.046875 Z M 5.578125 -11.21875 "/></g></g></g><g fill="#654d28" fill-opacity="1"><g transform="translate(93.822545, 158.111611)"><g><path d="M 0.734375 -0.4375 C 1.035156 -0.445312 1.253906 -0.515625 1.390625 -0.640625 C 1.523438 -0.773438 1.597656 -0.929688 1.609375 -1.109375 C 1.628906 -1.296875 1.640625 -1.613281 1.640625 -2.0625 L 1.640625 -7.765625 C 1.640625 -8.140625 1.648438 -8.457031 1.671875 -8.71875 L 0.734375 -8.671875 L 0.734375 -9.25 C 1.648438 -9.269531 2.335938 -9.28125 2.796875 -9.28125 C 3.222656 -9.28125 3.539062 -9.273438 3.75 -9.265625 C 5 -9.242188 5.910156 -9.03125 6.484375 -8.625 C 7.054688 -8.226562 7.34375 -7.65625 7.34375 -6.90625 C 7.351562 -6.289062 7.171875 -5.738281 6.796875 -5.25 C 6.429688 -4.769531 5.789062 -4.4375 4.875 -4.25 C 5.03125 -4.132812 5.164062 -4 5.28125 -3.84375 C 5.40625 -3.6875 5.578125 -3.441406 5.796875 -3.109375 L 6.6875 -1.6875 C 6.882812 -1.382812 7.046875 -1.148438 7.171875 -0.984375 C 7.296875 -0.816406 7.445312 -0.679688 7.625 -0.578125 C 7.8125 -0.484375 8.035156 -0.4375 8.296875 -0.4375 L 8.296875 0 L 6.640625 0 C 6.398438 -0.195312 6.195312 -0.40625 6.03125 -0.625 C 5.875 -0.84375 5.679688 -1.125 5.453125 -1.46875 L 4.578125 -2.875 L 4.40625 -3.15625 C 4.257812 -3.394531 4.132812 -3.585938 4.03125 -3.734375 C 3.925781 -3.890625 3.8125 -4.023438 3.6875 -4.140625 C 3.601562 -4.128906 3.476562 -4.125 3.3125 -4.125 C 3.082031 -4.125 2.910156 -4.128906 2.796875 -4.140625 L 2.796875 -1.578125 C 2.796875 -1.109375 2.78125 -0.757812 2.75 -0.53125 L 3.703125 -0.578125 L 3.703125 0 L 0.734375 0 Z M 3.375 -4.625 C 5.164062 -4.625 6.0625 -5.332031 6.0625 -6.75 C 6.0625 -7.425781 5.867188 -7.929688 5.484375 -8.265625 C 5.097656 -8.597656 4.503906 -8.765625 3.703125 -8.765625 C 3.390625 -8.765625 3.164062 -8.703125 3.03125 -8.578125 C 2.90625 -8.453125 2.832031 -8.300781 2.8125 -8.125 C 2.800781 -7.945312 2.796875 -7.632812 2.796875 -7.1875 L 2.796875 -4.65625 C 3.054688 -4.632812 3.25 -4.625 3.375 -4.625 Z M 1.625 -12.171875 L 1.921875 -12.625 L 4.140625 -11.453125 L 6.390625 -12.65625 L 6.65625 -12.234375 L 4.09375 -10.3125 L 4.0625 -10.3125 Z M 1.625 -12.171875 "/></g></g></g><g fill="#654d28" fill-opacity="1"><g transform="translate(101.358879, 158.111611)"><g><path d="M 3.8125 0.21875 C 3.40625 0.21875 2.988281 0.160156 2.5625 0.046875 C 2.144531 -0.0664062 1.78125 -0.238281 1.46875 -0.46875 L 1.53125 0.109375 L 0.84375 0.109375 L 0.765625 -2.703125 L 1.28125 -2.703125 C 1.320312 -1.953125 1.582031 -1.367188 2.0625 -0.953125 C 2.539062 -0.546875 3.144531 -0.34375 3.875 -0.34375 C 4.40625 -0.34375 4.851562 -0.488281 5.21875 -0.78125 C 5.59375 -1.082031 5.78125 -1.488281 5.78125 -2 C 5.78125 -2.375 5.675781 -2.695312 5.46875 -2.96875 C 5.257812 -3.238281 5.003906 -3.460938 4.703125 -3.640625 C 4.398438 -3.816406 3.988281 -4.023438 3.46875 -4.265625 C 2.875 -4.546875 2.398438 -4.789062 2.046875 -5 C 1.703125 -5.21875 1.40625 -5.5 1.15625 -5.84375 C 0.914062 -6.195312 0.796875 -6.628906 0.796875 -7.140625 C 0.796875 -7.492188 0.875 -7.84375 1.03125 -8.1875 C 1.195312 -8.539062 1.476562 -8.84375 1.875 -9.09375 C 2.28125 -9.34375 2.8125 -9.46875 3.46875 -9.46875 C 3.875 -9.46875 4.273438 -9.414062 4.671875 -9.3125 C 5.078125 -9.207031 5.445312 -9.035156 5.78125 -8.796875 L 5.71875 -9.359375 L 6.390625 -9.359375 L 6.390625 -6.453125 L 5.921875 -6.453125 C 5.878906 -7.148438 5.65625 -7.738281 5.25 -8.21875 C 4.851562 -8.695312 4.289062 -8.9375 3.5625 -8.9375 C 3.039062 -8.9375 2.628906 -8.785156 2.328125 -8.484375 C 2.023438 -8.191406 1.875 -7.828125 1.875 -7.390625 C 1.875 -7.035156 1.972656 -6.726562 2.171875 -6.46875 C 2.378906 -6.21875 2.628906 -6.007812 2.921875 -5.84375 C 3.210938 -5.675781 3.625 -5.46875 4.15625 -5.21875 C 4.75 -4.945312 5.226562 -4.703125 5.59375 -4.484375 C 5.957031 -4.265625 6.265625 -3.972656 6.515625 -3.609375 C 6.773438 -3.253906 6.90625 -2.816406 6.90625 -2.296875 C 6.90625 -1.804688 6.785156 -1.367188 6.546875 -0.984375 C 6.304688 -0.609375 5.953125 -0.3125 5.484375 -0.09375 C 5.015625 0.113281 4.457031 0.21875 3.8125 0.21875 Z M 3.8125 0.21875 "/></g></g></g><g fill="#654d28" fill-opacity="1"><g transform="translate(108.089966, 158.111611)"><g><path d="M 0.734375 -0.4375 C 1.035156 -0.445312 1.253906 -0.515625 1.390625 -0.640625 C 1.523438 -0.773438 1.597656 -0.929688 1.609375 -1.109375 C 1.628906 -1.296875 1.640625 -1.613281 1.640625 -2.0625 L 1.640625 -7.765625 C 1.640625 -8.140625 1.648438 -8.457031 1.671875 -8.71875 L 0.734375 -8.671875 L 0.734375 -9.25 L 3.703125 -9.25 L 3.703125 -8.8125 C 3.390625 -8.800781 3.164062 -8.726562 3.03125 -8.59375 C 2.90625 -8.46875 2.832031 -8.3125 2.8125 -8.125 C 2.800781 -7.945312 2.796875 -7.632812 2.796875 -7.1875 L 2.796875 -5.015625 L 3.78125 -5.015625 L 5.4375 -7.625 C 5.757812 -8.125 6.070312 -8.492188 6.375 -8.734375 L 5.5625 -8.71875 L 5.5625 -9.25 L 8.40625 -9.25 L 8.40625 -8.8125 C 8 -8.78125 7.65625 -8.710938 7.375 -8.609375 C 7.101562 -8.515625 6.832031 -8.34375 6.5625 -8.09375 C 6.300781 -7.851562 6.023438 -7.5 5.734375 -7.03125 L 4.4375 -4.96875 C 4.632812 -4.84375 4.800781 -4.707031 4.9375 -4.5625 C 5.082031 -4.414062 5.207031 -4.269531 5.3125 -4.125 C 5.425781 -3.976562 5.5 -3.882812 5.53125 -3.84375 L 7.015625 -1.875 C 7.347656 -1.445312 7.617188 -1.128906 7.828125 -0.921875 C 8.046875 -0.722656 8.234375 -0.59375 8.390625 -0.53125 C 8.546875 -0.46875 8.738281 -0.4375 8.96875 -0.4375 L 8.96875 0 L 7.34375 0 C 7.113281 0 6.671875 -0.429688 6.015625 -1.296875 L 4.421875 -3.4375 C 4.210938 -3.707031 4.03125 -3.929688 3.875 -4.109375 C 3.71875 -4.285156 3.570312 -4.414062 3.4375 -4.5 L 2.796875 -4.5 L 2.796875 -1.578125 C 2.796875 -1.109375 2.78125 -0.757812 2.75 -0.53125 L 3.703125 -0.578125 L 3.703125 0 L 0.734375 0 Z M 0.734375 -0.4375 "/></g></g></g><g fill="#654d28" fill-opacity="1"><g transform="translate(116.35233, 158.111611)"><g><path d="M -0.078125 -0.4375 C 0.140625 -0.4375 0.3125 -0.484375 0.4375 -0.578125 C 0.570312 -0.679688 0.679688 -0.816406 0.765625 -0.984375 C 0.859375 -1.148438 0.960938 -1.394531 1.078125 -1.71875 L 1.203125 -2.09375 L 3.921875 -9.5 L 4.25 -9.5 L 7.1875 -1.984375 C 7.289062 -1.742188 7.375 -1.484375 7.4375 -1.203125 C 7.507812 -0.929688 7.539062 -0.707031 7.53125 -0.53125 L 8.4375 -0.578125 L 8.4375 0 L 5.40625 0 L 5.40625 -0.4375 C 5.925781 -0.445312 6.1875 -0.660156 6.1875 -1.078125 C 6.1875 -1.242188 6.140625 -1.445312 6.046875 -1.6875 L 5.59375 -2.9375 L 2.15625 -2.859375 C 2.019531 -2.492188 1.863281 -2.019531 1.6875 -1.4375 C 1.601562 -1.144531 1.492188 -0.84375 1.359375 -0.53125 L 2.390625 -0.578125 L 2.390625 0 L -0.078125 0 Z M 5.40625 -3.421875 L 4.46875 -5.953125 L 3.875 -7.578125 L 3.84375 -7.578125 L 3.296875 -6.078125 L 2.578125 -4.078125 L 2.359375 -3.421875 Z M 5.578125 -11.21875 C 5.859375 -11.394531 6 -11.585938 6 -11.796875 C 6 -11.910156 5.972656 -12.003906 5.921875 -12.078125 C 5.898438 -12.117188 5.851562 -12.15625 5.78125 -12.1875 C 5.71875 -12.226562 5.644531 -12.25 5.5625 -12.25 C 5.394531 -12.25 5.222656 -12.171875 5.046875 -12.015625 L 3.375 -10.421875 L 3.671875 -10.046875 Z M 5.578125 -11.21875 "/></g></g></g><g fill="#654d28" fill-opacity="1"><g transform="translate(123.862263, 158.111611)"><g/></g></g><g fill="#654d28" fill-opacity="1"><g transform="translate(126.580376, 158.111611)"><g><path d="M 0.734375 -0.4375 C 1.035156 -0.445312 1.253906 -0.515625 1.390625 -0.640625 C 1.523438 -0.773438 1.597656 -0.929688 1.609375 -1.109375 C 1.628906 -1.296875 1.640625 -1.613281 1.640625 -2.0625 L 1.640625 -7.765625 C 1.640625 -8.140625 1.648438 -8.457031 1.671875 -8.71875 L 0.734375 -8.671875 L 0.734375 -9.25 L 3.703125 -9.25 L 3.703125 -8.8125 C 3.390625 -8.800781 3.164062 -8.726562 3.03125 -8.59375 C 2.90625 -8.46875 2.832031 -8.3125 2.8125 -8.125 C 2.800781 -7.945312 2.796875 -7.632812 2.796875 -7.1875 L 2.796875 -1.515625 C 2.796875 -1.054688 2.78125 -0.710938 2.75 -0.484375 L 5.21875 -0.53125 C 5.78125 -0.539062 6.203125 -0.71875 6.484375 -1.0625 C 6.765625 -1.414062 6.90625 -1.972656 6.90625 -2.734375 L 7.359375 -2.734375 L 7.28125 0 L 0.734375 0 Z M 0.734375 -0.4375 "/></g></g></g><g fill="#654d28" fill-opacity="1"><g transform="translate(133.456673, 158.111611)"><g><path d="M -0.078125 -0.4375 C 0.140625 -0.4375 0.3125 -0.484375 0.4375 -0.578125 C 0.570312 -0.679688 0.679688 -0.816406 0.765625 -0.984375 C 0.859375 -1.148438 0.960938 -1.394531 1.078125 -1.71875 L 1.203125 -2.09375 L 3.921875 -9.5 L 4.25 -9.5 L 7.1875 -1.984375 C 7.289062 -1.742188 7.375 -1.484375 7.4375 -1.203125 C 7.507812 -0.929688 7.539062 -0.707031 7.53125 -0.53125 L 8.4375 -0.578125 L 8.4375 0 L 5.40625 0 L 5.40625 -0.4375 C 5.925781 -0.445312 6.1875 -0.660156 6.1875 -1.078125 C 6.1875 -1.242188 6.140625 -1.445312 6.046875 -1.6875 L 5.59375 -2.9375 L 2.15625 -2.859375 C 2.019531 -2.492188 1.863281 -2.019531 1.6875 -1.4375 C 1.601562 -1.144531 1.492188 -0.84375 1.359375 -0.53125 L 2.390625 -0.578125 L 2.390625 0 L -0.078125 0 Z M 5.40625 -3.421875 L 4.46875 -5.953125 L 3.875 -7.578125 L 3.84375 -7.578125 L 3.296875 -6.078125 L 2.578125 -4.078125 L 2.359375 -3.421875 Z M 5.40625 -3.421875 "/></g></g></g><g fill="#654d28" fill-opacity="1"><g transform="translate(140.966606, 158.111611)"><g><path d="M 0.734375 -0.4375 C 1.035156 -0.445312 1.253906 -0.515625 1.390625 -0.640625 C 1.523438 -0.773438 1.597656 -0.9375 1.609375 -1.125 C 1.628906 -1.320312 1.640625 -1.65625 1.640625 -2.125 L 1.640625 -7.6875 C 1.640625 -8.15625 1.648438 -8.5 1.671875 -8.71875 L 0.734375 -8.671875 L 0.734375 -9.25 C 2.015625 -9.269531 3.007812 -9.28125 3.71875 -9.28125 C 4.757812 -9.28125 5.554688 -9.097656 6.109375 -8.734375 C 6.671875 -8.367188 6.953125 -7.816406 6.953125 -7.078125 C 6.953125 -6.597656 6.765625 -6.15625 6.390625 -5.75 C 6.015625 -5.351562 5.472656 -5.09375 4.765625 -4.96875 L 4.765625 -4.9375 C 5.710938 -4.9375 6.4375 -4.71875 6.9375 -4.28125 C 7.445312 -3.851562 7.703125 -3.289062 7.703125 -2.59375 C 7.703125 -2.0625 7.566406 -1.597656 7.296875 -1.203125 C 7.035156 -0.816406 6.664062 -0.519531 6.1875 -0.3125 C 5.71875 -0.101562 5.1875 0 4.59375 0 L 0.734375 0 Z M 3.75 -5.09375 C 4.445312 -5.101562 4.953125 -5.289062 5.265625 -5.65625 C 5.585938 -6.03125 5.75 -6.492188 5.75 -7.046875 C 5.75 -7.703125 5.554688 -8.15625 5.171875 -8.40625 C 4.785156 -8.664062 4.320312 -8.796875 3.78125 -8.796875 C 3.5 -8.796875 3.285156 -8.753906 3.140625 -8.671875 C 3.003906 -8.597656 2.910156 -8.472656 2.859375 -8.296875 C 2.816406 -8.117188 2.796875 -7.859375 2.796875 -7.515625 L 2.796875 -5.0625 Z M 4.15625 -0.5 C 4.84375 -0.5 5.390625 -0.671875 5.796875 -1.015625 C 6.210938 -1.367188 6.421875 -1.867188 6.421875 -2.515625 C 6.421875 -3.265625 6.210938 -3.796875 5.796875 -4.109375 C 5.378906 -4.429688 4.832031 -4.59375 4.15625 -4.59375 C 3.664062 -4.59375 3.210938 -4.578125 2.796875 -4.546875 L 2.796875 -1.5625 C 2.796875 -1.101562 2.78125 -0.757812 2.75 -0.53125 C 2.914062 -0.507812 3.234375 -0.5 3.703125 -0.5 Z M 4.15625 -0.5 "/></g></g></g><g fill="#654d28" fill-opacity="1"><g transform="translate(148.423723, 158.111611)"><g><path d="M 5.3125 0.21875 C 4.257812 0.21875 3.378906 -0.015625 2.671875 -0.484375 C 1.960938 -0.953125 1.441406 -1.550781 1.109375 -2.28125 C 0.773438 -3.019531 0.609375 -3.800781 0.609375 -4.625 C 0.609375 -5.40625 0.78125 -6.164062 1.125 -6.90625 C 1.476562 -7.65625 2 -8.269531 2.6875 -8.75 C 3.382812 -9.226562 4.222656 -9.46875 5.203125 -9.46875 C 6.222656 -9.46875 7.085938 -9.226562 7.796875 -8.75 C 8.503906 -8.269531 9.03125 -7.65625 9.375 -6.90625 C 9.726562 -6.164062 9.90625 -5.40625 9.90625 -4.625 C 9.90625 -3.851562 9.734375 -3.09375 9.390625 -2.34375 C 9.046875 -1.601562 8.523438 -0.988281 7.828125 -0.5 C 7.140625 -0.0195312 6.300781 0.21875 5.3125 0.21875 Z M 5.34375 -0.328125 C 6.03125 -0.328125 6.617188 -0.519531 7.109375 -0.90625 C 7.597656 -1.300781 7.96875 -1.804688 8.21875 -2.421875 C 8.46875 -3.046875 8.59375 -3.695312 8.59375 -4.375 C 8.59375 -5.125 8.453125 -5.847656 8.171875 -6.546875 C 7.898438 -7.242188 7.503906 -7.816406 6.984375 -8.265625 C 6.472656 -8.710938 5.867188 -8.9375 5.171875 -8.9375 C 4.484375 -8.9375 3.890625 -8.738281 3.390625 -8.34375 C 2.898438 -7.957031 2.53125 -7.445312 2.28125 -6.8125 C 2.03125 -6.1875 1.90625 -5.535156 1.90625 -4.859375 C 1.90625 -4.160156 2.03125 -3.460938 2.28125 -2.765625 C 2.539062 -2.066406 2.929688 -1.484375 3.453125 -1.015625 C 3.972656 -0.554688 4.601562 -0.328125 5.34375 -0.328125 Z M 5.34375 -0.328125 "/></g></g></g><g fill="#654d28" fill-opacity="1"><g transform="translate(158.151354, 158.111611)"><g><path d="M 0.734375 -0.4375 C 1.035156 -0.445312 1.253906 -0.515625 1.390625 -0.640625 C 1.523438 -0.773438 1.597656 -0.929688 1.609375 -1.109375 C 1.628906 -1.296875 1.640625 -1.613281 1.640625 -2.0625 L 1.640625 -7.765625 C 1.640625 -8.140625 1.648438 -8.457031 1.671875 -8.71875 L 0.734375 -8.671875 L 0.734375 -9.25 C 1.648438 -9.269531 2.335938 -9.28125 2.796875 -9.28125 C 3.222656 -9.28125 3.539062 -9.273438 3.75 -9.265625 C 5 -9.242188 5.910156 -9.03125 6.484375 -8.625 C 7.054688 -8.226562 7.34375 -7.65625 7.34375 -6.90625 C 7.351562 -6.289062 7.171875 -5.738281 6.796875 -5.25 C 6.429688 -4.769531 5.789062 -4.4375 4.875 -4.25 C 5.03125 -4.132812 5.164062 -4 5.28125 -3.84375 C 5.40625 -3.6875 5.578125 -3.441406 5.796875 -3.109375 L 6.6875 -1.6875 C 6.882812 -1.382812 7.046875 -1.148438 7.171875 -0.984375 C 7.296875 -0.816406 7.445312 -0.679688 7.625 -0.578125 C 7.8125 -0.484375 8.035156 -0.4375 8.296875 -0.4375 L 8.296875 0 L 6.640625 0 C 6.398438 -0.195312 6.195312 -0.40625 6.03125 -0.625 C 5.875 -0.84375 5.679688 -1.125 5.453125 -1.46875 L 4.578125 -2.875 L 4.40625 -3.15625 C 4.257812 -3.394531 4.132812 -3.585938 4.03125 -3.734375 C 3.925781 -3.890625 3.8125 -4.023438 3.6875 -4.140625 C 3.601562 -4.128906 3.476562 -4.125 3.3125 -4.125 C 3.082031 -4.125 2.910156 -4.128906 2.796875 -4.140625 L 2.796875 -1.578125 C 2.796875 -1.109375 2.78125 -0.757812 2.75 -0.53125 L 3.703125 -0.578125 L 3.703125 0 L 0.734375 0 Z M 3.375 -4.625 C 5.164062 -4.625 6.0625 -5.332031 6.0625 -6.75 C 6.0625 -7.425781 5.867188 -7.929688 5.484375 -8.265625 C 5.097656 -8.597656 4.503906 -8.765625 3.703125 -8.765625 C 3.390625 -8.765625 3.164062 -8.703125 3.03125 -8.578125 C 2.90625 -8.453125 2.832031 -8.300781 2.8125 -8.125 C 2.800781 -7.945312 2.796875 -7.632812 2.796875 -7.1875 L 2.796875 -4.65625 C 3.054688 -4.632812 3.25 -4.625 3.375 -4.625 Z M 3.375 -4.625 "/></g></g></g><g fill="#654d28" fill-opacity="1"><g transform="translate(165.687688, 158.111611)"><g><path d="M -0.078125 -0.4375 C 0.140625 -0.4375 0.3125 -0.484375 0.4375 -0.578125 C 0.570312 -0.679688 0.679688 -0.816406 0.765625 -0.984375 C 0.859375 -1.148438 0.960938 -1.394531 1.078125 -1.71875 L 1.203125 -2.09375 L 3.921875 -9.5 L 4.25 -9.5 L 7.1875 -1.984375 C 7.289062 -1.742188 7.375 -1.484375 7.4375 -1.203125 C 7.507812 -0.929688 7.539062 -0.707031 7.53125 -0.53125 L 8.4375 -0.578125 L 8.4375 0 L 5.40625 0 L 5.40625 -0.4375 C 5.925781 -0.445312 6.1875 -0.660156 6.1875 -1.078125 C 6.1875 -1.242188 6.140625 -1.445312 6.046875 -1.6875 L 5.59375 -2.9375 L 2.15625 -2.859375 C 2.019531 -2.492188 1.863281 -2.019531 1.6875 -1.4375 C 1.601562 -1.144531 1.492188 -0.84375 1.359375 -0.53125 L 2.390625 -0.578125 L 2.390625 0 L -0.078125 0 Z M 5.40625 -3.421875 L 4.46875 -5.953125 L 3.875 -7.578125 L 3.84375 -7.578125 L 3.296875 -6.078125 L 2.578125 -4.078125 L 2.359375 -3.421875 Z M 5.40625 -3.421875 "/></g></g></g><g fill="#654d28" fill-opacity="1"><g transform="translate(173.197621, 158.111611)"><g><path d="M 2.75 -0.4375 C 3.125 -0.457031 3.363281 -0.5625 3.46875 -0.75 C 3.582031 -0.945312 3.640625 -1.25 3.640625 -1.65625 L 3.640625 -2.0625 L 3.65625 -8.765625 L 2.296875 -8.75 C 1.753906 -8.75 1.363281 -8.566406 1.125 -8.203125 C 0.894531 -7.835938 0.78125 -7.257812 0.78125 -6.46875 L 0.296875 -6.46875 L 0.375 -9.25 L 8.078125 -9.25 L 8.15625 -6.46875 L 7.65625 -6.46875 C 7.644531 -7.019531 7.585938 -7.457031 7.484375 -7.78125 C 7.390625 -8.113281 7.21875 -8.363281 6.96875 -8.53125 C 6.726562 -8.695312 6.382812 -8.78125 5.9375 -8.78125 L 4.8125 -8.78125 L 4.796875 -1.578125 C 4.796875 -1.109375 4.785156 -0.757812 4.765625 -0.53125 L 5.859375 -0.578125 L 5.859375 0 L 2.75 0 Z M 2.75 -0.4375 "/></g></g></g><g fill="#654d28" fill-opacity="1"><g transform="translate(180.892356, 158.111611)"><g><path d="M 5.3125 0.21875 C 4.257812 0.21875 3.378906 -0.015625 2.671875 -0.484375 C 1.960938 -0.953125 1.441406 -1.550781 1.109375 -2.28125 C 0.773438 -3.019531 0.609375 -3.800781 0.609375 -4.625 C 0.609375 -5.40625 0.78125 -6.164062 1.125 -6.90625 C 1.476562 -7.65625 2 -8.269531 2.6875 -8.75 C 3.382812 -9.226562 4.222656 -9.46875 5.203125 -9.46875 C 6.222656 -9.46875 7.085938 -9.226562 7.796875 -8.75 C 8.503906 -8.269531 9.03125 -7.65625 9.375 -6.90625 C 9.726562 -6.164062 9.90625 -5.40625 9.90625 -4.625 C 9.90625 -3.851562 9.734375 -3.09375 9.390625 -2.34375 C 9.046875 -1.601562 8.523438 -0.988281 7.828125 -0.5 C 7.140625 -0.0195312 6.300781 0.21875 5.3125 0.21875 Z M 5.34375 -0.328125 C 6.03125 -0.328125 6.617188 -0.519531 7.109375 -0.90625 C 7.597656 -1.300781 7.96875 -1.804688 8.21875 -2.421875 C 8.46875 -3.046875 8.59375 -3.695312 8.59375 -4.375 C 8.59375 -5.125 8.453125 -5.847656 8.171875 -6.546875 C 7.898438 -7.242188 7.503906 -7.816406 6.984375 -8.265625 C 6.472656 -8.710938 5.867188 -8.9375 5.171875 -8.9375 C 4.484375 -8.9375 3.890625 -8.738281 3.390625 -8.34375 C 2.898438 -7.957031 2.53125 -7.445312 2.28125 -6.8125 C 2.03125 -6.1875 1.90625 -5.535156 1.90625 -4.859375 C 1.90625 -4.160156 2.03125 -3.460938 2.28125 -2.765625 C 2.539062 -2.066406 2.929688 -1.484375 3.453125 -1.015625 C 3.972656 -0.554688 4.601562 -0.328125 5.34375 -0.328125 Z M 5.34375 -0.328125 "/></g></g></g><g fill="#654d28" fill-opacity="1"><g transform="translate(190.619987, 158.111611)"><g><path d="M 0.734375 -0.4375 C 1.035156 -0.445312 1.253906 -0.515625 1.390625 -0.640625 C 1.523438 -0.773438 1.597656 -0.929688 1.609375 -1.109375 C 1.628906 -1.296875 1.640625 -1.613281 1.640625 -2.0625 L 1.640625 -7.765625 C 1.640625 -8.140625 1.648438 -8.457031 1.671875 -8.71875 L 0.734375 -8.671875 L 0.734375 -9.25 C 1.648438 -9.269531 2.335938 -9.28125 2.796875 -9.28125 C 3.222656 -9.28125 3.539062 -9.273438 3.75 -9.265625 C 5 -9.242188 5.910156 -9.03125 6.484375 -8.625 C 7.054688 -8.226562 7.34375 -7.65625 7.34375 -6.90625 C 7.351562 -6.289062 7.171875 -5.738281 6.796875 -5.25 C 6.429688 -4.769531 5.789062 -4.4375 4.875 -4.25 C 5.03125 -4.132812 5.164062 -4 5.28125 -3.84375 C 5.40625 -3.6875 5.578125 -3.441406 5.796875 -3.109375 L 6.6875 -1.6875 C 6.882812 -1.382812 7.046875 -1.148438 7.171875 -0.984375 C 7.296875 -0.816406 7.445312 -0.679688 7.625 -0.578125 C 7.8125 -0.484375 8.035156 -0.4375 8.296875 -0.4375 L 8.296875 0 L 6.640625 0 C 6.398438 -0.195312 6.195312 -0.40625 6.03125 -0.625 C 5.875 -0.84375 5.679688 -1.125 5.453125 -1.46875 L 4.578125 -2.875 L 4.40625 -3.15625 C 4.257812 -3.394531 4.132812 -3.585938 4.03125 -3.734375 C 3.925781 -3.890625 3.8125 -4.023438 3.6875 -4.140625 C 3.601562 -4.128906 3.476562 -4.125 3.3125 -4.125 C 3.082031 -4.125 2.910156 -4.128906 2.796875 -4.140625 L 2.796875 -1.578125 C 2.796875 -1.109375 2.78125 -0.757812 2.75 -0.53125 L 3.703125 -0.578125 L 3.703125 0 L 0.734375 0 Z M 3.375 -4.625 C 5.164062 -4.625 6.0625 -5.332031 6.0625 -6.75 C 6.0625 -7.425781 5.867188 -7.929688 5.484375 -8.265625 C 5.097656 -8.597656 4.503906 -8.765625 3.703125 -8.765625 C 3.390625 -8.765625 3.164062 -8.703125 3.03125 -8.578125 C 2.90625 -8.453125 2.832031 -8.300781 2.8125 -8.125 C 2.800781 -7.945312 2.796875 -7.632812 2.796875 -7.1875 L 2.796875 -4.65625 C 3.054688 -4.632812 3.25 -4.625 3.375 -4.625 Z M 1.625 -12.171875 L 1.921875 -12.625 L 4.140625 -11.453125 L 6.390625 -12.65625 L 6.65625 -12.234375 L 4.09375 -10.3125 L 4.0625 -10.3125 Z M 1.625 -12.171875 "/></g></g></g></g></g></svg>